<?xml version="1.0" encoding="UTF-8"?>
<svg width="300px" height="300px" viewBox="0 0 300 300" version="1.1" xmlns="http://www.w3.org/2000/svg" xmlns:xlink="http://www.w3.org/1999/xlink">
    <!-- Generator: Sketch 51.3 (57544) - http://www.bohemiancoding.com/sketch -->
    <title>gc_enterprise_logo</title>
    <desc>Created with Sketch.</desc>
    <defs></defs>
    <g id="Page-1" stroke="none" stroke-width="1" fill="none" fill-rule="evenodd">
        <g id="Logos" transform="translate(-693.000000, 0.000000)">
            <g id="gc_enterprise_logo" transform="translate(693.000000, 0.000000)">
                <circle id="Oval-2" fill="#009BD2" cx="150" cy="150" r="150"></circle>
                <g id="clip1" transform="translate(47.000000, 117.000000)" fill="#FFFFFF" fill-rule="nonzero">
                    <path d="M27.0510204,12.5469388 L132.461224,12.5632653 C132.680272,12.5557823 132.955102,12.5632653 133.17619,12.5632653 C144.676871,12.5632653 153.985034,21.8721088 153.985034,33.3721088 C153.985034,44.8727891 144.676871,54.1809524 133.17619,54.1809524 C133.134014,54.1809524 132.921088,54.1816327 132.878231,54.1809524 L58.2639456,54.1809524 C55.9659864,54.1809524 54.1027211,52.3183673 54.1027211,50.0197279 C54.1027211,47.7210884 55.9659864,45.8578231 58.2639456,45.8578231 L133.176871,45.8578231 C140.078912,45.8578231 145.662585,40.2768707 145.662585,33.3741497 C145.662585,26.4714286 140.045578,20.8877551 133.142857,20.8877551 L27.0727891,20.8748299 C27.0707483,20.8748299 27.0693878,20.8748299 27.0673469,20.8748299 C16.7238095,20.8748299 8.33945578,29.2598639 8.33945578,39.6020408 C8.33945578,49.9455782 16.7244898,58.329932 27.0673469,58.329932 L27.0673469,58.3428571 L166.470748,58.3428571 C180.261905,58.3428571 191.441497,47.162585 191.441497,33.3721088 C191.441497,19.5809524 180.261905,8.40136054 166.470748,8.40136054 L58.2639456,8.40136054 C55.9659864,8.40136054 54.1027211,6.53809524 54.1027211,4.23945578 C54.1027211,1.9414966 55.9659864,0.0775510204 58.2639456,0.0775510204 L166.470068,0.0775510204 C184.857823,0.0775510204 199.764626,14.9843537 199.764626,33.3721088 C199.764626,51.7598639 184.858503,66.6666667 166.470068,66.6666667 C166.138095,66.6666667 165.807483,66.6598639 165.478231,66.6510204 L27.0510204,66.6510204 C12.1108844,66.6510204 0,54.5387755 0,39.5993197 C0,24.6591837 12.1108844,12.5469388 27.0510204,12.5469388 Z" id="Shape"></path>
                </g>
            </g>
        </g>
    </g>
</svg>