<?xml version="1.0" encoding="UTF-8"?>
<svg width="300px" height="300px" viewBox="0 0 300 300" version="1.1" xmlns="http://www.w3.org/2000/svg" xmlns:xlink="http://www.w3.org/1999/xlink">
    <!-- Generator: Sketch 56.3 (81716) - https://sketch.com -->
    <title>gc_geoserver_logo</title>
    <desc>Created with Sketch.</desc>
    <g id="Symbols" stroke="none" stroke-width="1" fill="none" fill-rule="evenodd">
        <g id="Logo/GeoServer/Colour">
            <g id="gc_geoserver_logo">
                <circle id="Background" fill="#00AD9F" cx="150" cy="150" r="150"></circle>
                <path d="M69.4950486,176.168735 C64.264699,171.235959 61,164.241536 61,156.484989 C61,141.544853 73.1108844,129.432608 88.0510204,129.432608 L193.461224,129.448935 C193.680272,129.441452 193.955102,129.448935 194.17619,129.448935 C205.676871,129.448935 214.985034,138.757778 214.985034,150.257778 C214.985034,161.758459 205.676871,171.066622 194.17619,171.066622 C194.134014,171.066622 193.921088,171.067302 193.878231,171.066622 L119.263946,171.066622 C116.965986,171.066622 115.102721,169.204037 115.102721,166.905397 C115.102721,164.606758 116.965986,162.743493 119.263946,162.743493 L194.176871,162.743493 C201.078912,162.743493 206.662585,157.16254 206.662585,150.259819 C206.662585,143.357098 201.045578,137.773424 194.142857,137.773424 L88.0727891,137.760499 C77.7238095,137.760499 69.3394558,146.145533 69.3394558,156.48771 C69.3394558,163.383402 75.576644,172.399729 88.0510204,183.536691 C88.0147051,183.536691 87.9784064,183.53662 87.9421246,183.536477 L137.593023,229.594578 C141.29598,232.543386 144.893848,233.934934 148.466497,233.903963 C152.063512,233.872781 155.773285,232.39879 159.651702,229.349853 L227.610651,161.390903 C230.610257,157.472016 232.058694,153.784144 232.087172,150.285318 C232.115464,146.809293 230.743884,143.225477 227.838174,139.470167 L159.587167,71.21916 C155.737421,68.1802194 152.06171,66.7297297 148.5,66.7297297 C144.93829,66.7297297 141.262579,68.1802194 137.412833,71.21916 L106.8237,101.808293 C105.314376,103.317617 102.867279,103.317617 101.357955,101.808293 C99.8486317,100.298969 99.8486317,97.8518724 101.357955,96.3425488 L132.102767,65.597737 C132.203597,65.4969073 132.309929,65.401735 132.421277,65.3126567 C137.621877,61.1521774 143.00232,59 148.5,59 C153.99768,59 159.378123,61.1521774 164.578723,65.3126567 C164.690071,65.401735 164.796403,65.4969073 164.897233,65.597737 L233.472341,134.172845 C233.581304,134.281808 233.683652,134.397189 233.778838,134.518372 C237.801182,139.639286 239.860679,144.938155 239.816646,150.34823 C239.772805,155.734626 237.645389,161.072668 233.57195,166.318357 C233.473046,166.445725 233.366267,166.566777 233.252239,166.680805 L164.95902,234.974024 C164.856371,235.076672 164.74802,235.173456 164.634483,235.263915 C159.422363,239.416583 154.035932,241.585703 148.533503,241.633402 C143.005292,241.681325 137.660298,239.584727 132.581787,235.484077 C132.475384,235.398162 132.373617,235.30666 132.276914,235.209957 L70,176.816774 C69.8659357,176.682709 69.694713,176.461538 69.4950486,176.168735 Z" id="GeoCat-GeoServer-Clip" fill="#FFFFFF" fill-rule="nonzero"></path>
            </g>
        </g>
    </g>
</svg>