<?xml version="1.0" encoding="UTF-8"?>
<svg width="300px" height="300px" viewBox="0 0 300 300" version="1.1" xmlns="http://www.w3.org/2000/svg" xmlns:xlink="http://www.w3.org/1999/xlink">
    <!-- Generator: Sketch 51.3 (57544) - http://www.bohemiancoding.com/sketch -->
    <title>gc_services_logo</title>
    <desc>Created with Sketch.</desc>
    <defs></defs>
    <g id="Page-1" stroke="none" stroke-width="1" fill="none" fill-rule="evenodd">
        <g id="Logos" transform="translate(-2133.000000, 0.000000)">
            <g id="gc_services_logo" transform="translate(2133.000000, 0.000000)">
                <circle id="Oval-2" fill="#1F1249" cx="150" cy="150" r="150"></circle>
                <g id="clip-services" transform="translate(57.000000, 115.000000)" fill="#FFFFFF" fill-rule="nonzero">
                    <path d="M199.947191,17.5559301 L189.130712,6.73945069 C188.87628,6.45418227 188.613109,6.17403246 188.339451,5.90024969 C180.533333,-1.90599251 167.896629,-1.90586767 160.090512,5.90024969 C160.061798,5.92908864 122.960424,43.0303371 122.960424,43.0303371 C121.40025,44.5906367 121.40025,47.1203496 122.960424,48.6802747 C124.520474,50.2403246 127.050187,50.2403246 128.610237,48.6802747 L165.740325,11.5500624 C170.425343,6.8650437 178.00362,6.86367041 182.688639,11.5489388 C182.715231,11.5754057 182.739451,11.6032459 182.765543,11.6299625 L182.778277,11.6174782 L188.716479,17.5559301 L128.805119,77.5280899 L25.9831461,77.5280899 L25.9831461,77.5161049 C16.054432,77.5161049 8.00561798,69.4672909 8.00561798,59.5385768 C8.00561798,49.6098627 16.054432,41.5610487 25.9831461,41.5610487 C25.984769,41.5610487 25.9861423,41.5610487 25.988015,41.5610487 L95.847191,41.5730337 C102.473034,41.5730337 107.865169,46.9337079 107.865169,53.5598002 C107.865169,60.1855181 102.505618,65.5430712 95.8801498,65.5430712 L47.9400749,65.5430712 C45.7337079,65.5430712 43.9450687,67.3317104 43.9450687,69.5380774 C43.9450687,71.7444444 45.7337079,73.5330836 47.9400749,73.5330836 C47.9400749,73.5330836 95.8393258,73.5330836 95.8801498,73.5330836 C106.919725,73.5330836 115.855181,64.5977528 115.855181,53.5580524 C115.855181,42.5186017 106.919725,33.5830212 95.8801498,33.5830212 C95.6681648,33.5830212 25.9675406,33.5674157 25.9675406,33.5674157 C11.6259675,33.5674157 0,45.1935081 0,59.5349563 C0,73.8764045 11.6259675,85.5024969 25.9675406,85.5024969 L129.230961,85.5174782 C131.157054,85.4163546 132.900999,84.6334582 134.229963,83.4067416 L199.947191,17.5559301 Z" id="Shape"></path>
                </g>
            </g>
        </g>
    </g>
</svg>