<?xml version="1.0" encoding="UTF-8"?>
<svg width="207px" height="207px" viewBox="0 0 207 207" version="1.1" xmlns="http://www.w3.org/2000/svg" xmlns:xlink="http://www.w3.org/1999/xlink">
    <!-- Generator: Sketch 57.1 (83088) - https://sketch.com -->
    <title>gc_geocat_logo_only</title>
    <desc>Created with Sketch.</desc>
    <g id="Symbols" stroke="none" stroke-width="1" fill="none" fill-rule="evenodd">
        <g id="Logo/GeoCat-GC" transform="translate(-12.000000, 0.000000)" fill-rule="nonzero">
            <g id="gc_geocat_logo_only" transform="translate(11.000000, 0.000000)">
                <g id="Group" transform="translate(0.523688, 0.000000)">
                    <path d="M138.791293,61.8553137 L152.636364,52.4391805 C139.900128,40.2586428 122.724712,32.7746479 103.889885,32.7746479 C65.1190781,32.7746479 33.546735,64.3444302 33.5390525,103.117798 C33.5480154,141.892446 65.1152369,174.026889 103.895006,174.026889 C127.206146,174.026889 147.959027,162.386684 160.854033,144.668374 L138.786172,144.668374 C129.37388,152.699104 117.184379,157.408451 103.895006,157.408451 C73.978233,157.408451 49.8822023,133.31242 49.8834827,103.116517 C49.8847631,73.2099872 73.9846351,49.1152369 103.891165,49.1152369 C117.18694,49.1139565 129.653009,53.822023 138.791293,61.8553137" id="Shape" fill="#0C97CE"></path>
                    <path d="M207.192061,103.152369 L190.829706,103.152369 L153.449424,103.152369 L186.367478,130.727273 C174.856594,165.215109 142.293214,190.090909 103.892446,190.090909 C55.8758003,190.090909 16.9513444,151.215109 16.9513444,103.261204 C16.9513444,55.3072983 55.8758003,16.4327785 103.892446,16.4327785 C128.421255,16.4327785 150.5621,26.5953905 166.370038,42.9129321 L179.965429,33.4801536 C161.084507,12.9628681 133.996159,0.0921895006 103.892446,0.0921895006 C46.8399488,0.0921895006 0.588988476,46.2816901 0.588988476,103.262484 C0.588988476,160.244558 46.8399488,206.434059 103.892446,206.434059 C160.944942,206.434059 207.195903,160.244558 207.195903,103.262484 C207.195903,103.224072 207.192061,103.18694 207.192061,103.152369 Z" id="Shape" fill="#261C44"></path>
                </g>
            </g>
        </g>
    </g>
</svg>