<?xml version="1.0" encoding="UTF-8"?>
<svg width="357px" height="50px" viewBox="0 0 357 50" version="1.1" xmlns="http://www.w3.org/2000/svg" xmlns:xlink="http://www.w3.org/1999/xlink">
    <!-- Generator: Sketch 57.1 (83088) - https://sketch.com -->
    <title>Horizontal/Titles-Logo/Care</title>
    <desc>Created with Sketch.</desc>
    <g id="Horizontal/Titles-Logo/Care" stroke="none" stroke-width="1" fill="none" fill-rule="evenodd">
        <g id="Logo/Services/Colour">
            <g id="gc_services_logo">
                <circle id="Background" fill="#1F1249" cx="25" cy="25" r="25"></circle>
                <path d="M42.8245318,22.092655 L41.0217853,20.2899084 C40.9793799,20.2423637 40.9355181,20.1956721 40.8899084,20.1500416 C39.5888889,18.8490012 37.4827715,18.8490221 36.181752,20.1500416 C36.1769663,20.1548481 29.9934041,26.3383895 29.9934041,26.3383895 C29.7333749,26.5984395 29.7333749,27.0200583 29.9934041,27.2800458 C30.2534124,27.5400541 30.6750312,27.5400541 30.9350395,27.2800458 L37.1233874,21.0916771 C37.9042239,20.3108406 39.1672701,20.3106117 39.9481065,21.0914898 C39.9525385,21.095901 39.9565751,21.100541 39.9609238,21.1049938 L39.9630462,21.102913 L40.9527466,22.092655 L30.9675198,32.088015 L13.8305243,32.088015 L13.8305243,32.0860175 C12.1757387,32.0860175 10.8342697,30.7445485 10.8342697,29.0897628 C10.8342697,27.4349771 12.1757387,26.0935081 13.8305243,26.0935081 C13.8307948,26.0935081 13.8310237,26.0935081 13.8313358,26.0935081 L25.4745318,26.0955056 C26.578839,26.0955056 27.4775281,26.9889513 27.4775281,28.0933 C27.4775281,29.1975864 26.5842697,30.0905119 25.480025,30.0905119 L17.4900125,30.0905119 C17.1222846,30.0905119 16.8241781,30.3886184 16.8241781,30.7563462 C16.8241781,31.1240741 17.1222846,31.4221806 17.4900125,31.4221806 C17.4900125,31.4221806 25.473221,31.4221806 25.480025,31.4221806 C27.3199542,31.4221806 28.8091968,29.9329588 28.8091968,28.0930087 C28.8091968,26.2531003 27.3199542,24.7638369 25.480025,24.7638369 C25.4446941,24.7638369 13.8279234,24.761236 13.8279234,24.761236 C11.4376613,24.761236 9.5,26.698918 9.5,29.0891594 C9.5,31.4794007 11.4376613,33.4170828 13.8279234,33.4170828 L31.0384935,33.4195797 C31.3595089,33.4027258 31.6501665,33.272243 31.8716604,33.0677903 L42.8245318,22.092655 Z" id="GeoCat-Services-Clip" fill="#FFFFFF" fill-rule="nonzero"></path>
            </g>
        </g>
        <g id="Horizontal/Titles/Care" transform="translate(57.000000, 0.000000)" fill="#07002D">
            <g transform="translate(139.000000, 25.000000) rotate(90.000000) translate(-139.000000, -25.000000) translate(116.000000, -114.000000)" id="Titles/Care">
                <g transform="translate(23.701504, 139.131096) rotate(-90.000000) translate(-23.701504, -139.131096) translate(-114.298496, 117.131096)" fill-rule="nonzero">
                    <path d="M8.62940269,40.7604935 L8.97660499,42.6543242 C8.55049308,42.8594892 7.54045004,43.112 6.26211432,43.112 C2.58492637,43.112 0.691095664,40.8078393 0.691095664,37.7777102 C0.691095664,34.147868 3.27933096,32.1435638 6.49884315,32.1435638 C7.74561503,32.1435638 8.69253038,32.3802927 9.11864229,32.6170215 L8.61362077,34.5108522 C8.1401631,34.3056872 7.46154043,34.1163042 6.59353469,34.1163042 C4.69970399,34.1163042 3.21620327,35.2683845 3.21620327,37.6356729 C3.21620327,39.7662324 4.47875707,41.1076958 6.60931661,41.1076958 C7.35106697,41.1076958 8.1401631,40.9656585 8.62940269,40.7604935 Z M15.2578102,32.112 C18.5246681,32.112 20.3080254,34.558198 20.3080254,37.5094175 C20.3080254,41.0130043 18.2090297,43.112 15.084209,43.112 C11.9436064,43.112 10.0813396,40.7289297 10.0813396,37.6830187 C10.0813396,34.4950703 12.1329895,32.112 15.2578102,32.112 Z M15.2104644,34.0216126 C13.5691444,34.0216126 12.6222291,35.568241 12.6222291,37.6356729 C12.6222291,39.7346686 13.6007083,41.2023874 15.2104644,41.2023874 C16.8360024,41.2023874 17.7671358,39.655759 17.7671358,37.5883271 C17.7671358,35.6629326 16.8675663,34.0216126 15.2104644,34.0216126 Z M24.0956868,42.9383989 L21.8862176,42.9383989 L21.8862176,32.3013831 L24.6953998,32.3013831 L26.904869,36.1995179 C27.5361459,37.3200344 28.1516409,38.6457159 28.6408805,39.845142 L28.6724443,39.845142 C28.530407,38.4405509 28.4830612,37.004396 28.4830612,35.3946399 L28.4830612,32.3013831 L30.6925304,32.3013831 L30.6925304,42.9383989 L28.1674228,42.9383989 L25.8948259,38.835099 C25.263549,37.6988006 24.5533625,36.3257733 24.048341,35.0790014 L23.9852133,35.0790014 C24.0641229,36.4993745 24.0956868,37.9986571 24.0956868,39.7346686 L24.0956868,42.9383989 Z M32.3654142,42.4333773 L32.8546538,40.460637 C33.4859307,40.7920574 34.4959737,41.1234778 35.5217987,41.1234778 C36.6265333,41.1234778 37.2104644,40.665802 37.2104644,39.9713974 C37.2104644,39.3085567 36.7054429,38.9297905 35.4271071,38.4878967 C33.6595318,37.8566198 32.4916696,36.8781406 32.4916696,35.3315122 C32.4916696,33.5165911 34.022516,32.1435638 36.5160598,32.1435638 C37.7312678,32.1435638 38.5992736,32.3802927 39.2305505,32.6801492 L38.6939651,34.6055438 C38.2836351,34.4003788 37.5103209,34.1005222 36.484496,34.1005222 C35.4428891,34.1005222 34.9378675,34.5897618 34.9378675,35.1263472 C34.9378675,35.8049699 35.5217987,36.1048264 36.9106079,36.6256298 C38.7886566,37.3200344 39.6566624,38.2985136 39.6566624,39.7977963 C39.6566624,41.5811535 38.299417,43.0962181 35.3797614,43.0962181 C34.1645533,43.0962181 32.9651272,42.7647977 32.3654142,42.4333773 Z M41.2979823,32.3013831 L43.6968345,32.3013831 L43.6968345,38.4089871 C43.6968345,40.255472 44.4070211,41.1866055 45.6222291,41.1866055 C46.8847829,41.1866055 47.5791875,40.3028178 47.5791875,38.4089871 L47.5791875,32.3013831 L49.9780397,32.3013831 L49.9780397,38.2669498 C49.9780397,41.5495897 48.3209378,43.112 45.5433195,43.112 C42.8603927,43.112 41.2979823,41.6127174 41.2979823,38.2353859 L41.2979823,32.3013831 Z M52.0770354,42.9383989 L52.0770354,32.3013831 L54.4758876,32.3013831 L54.4758876,40.9183128 L58.7054429,40.9183128 L58.7054429,42.9383989 L52.0770354,42.9383989 Z M62.1932477,42.9383989 L62.1932477,34.3214692 L59.3209378,34.3214692 L59.3209378,32.3013831 L67.4959737,32.3013831 L67.4959737,34.3214692 L64.5921,34.3214692 L64.5921,42.9383989 L62.1932477,42.9383989 Z M74.2979823,40.2081263 L71.2520713,40.2081263 L70.494539,42.9383989 L68.0167772,42.9383989 L71.2520713,32.3013831 L74.4084558,32.3013831 L77.7226595,42.9383989 L75.1186423,42.9383989 L74.2979823,40.2081263 Z M71.5992736,38.4089871 L73.95078,38.4089871 L73.2879393,36.1521722 C73.0985562,35.5208953 72.9091731,34.7317991 72.7513539,34.1005222 L72.7197901,34.1005222 C72.5619708,34.7317991 72.4041516,35.5366772 72.2305505,36.1521722 L71.5992736,38.4089871 Z M81.3367198,42.9383989 L79.1272506,42.9383989 L79.1272506,32.3013831 L81.9364328,32.3013831 L84.145902,36.1995179 C84.7771789,37.3200344 85.3926739,38.6457159 85.8819135,39.845142 L85.9134773,39.845142 C85.77144,38.4405509 85.7240942,37.004396 85.7240942,35.3946399 L85.7240942,32.3013831 L87.9335634,32.3013831 L87.9335634,42.9383989 L85.4084558,42.9383989 L83.1358589,38.835099 C82.504582,37.6988006 81.7943955,36.3257733 81.289374,35.0790014 L81.2262463,35.0790014 C81.3051559,36.4993745 81.3367198,37.9986571 81.3367198,39.7346686 L81.3367198,42.9383989 Z M97.4658446,40.7604935 L97.8130469,42.6543242 C97.386935,42.8594892 96.3768919,43.112 95.0985562,43.112 C91.4213683,43.112 89.5275376,40.8078393 89.5275376,37.7777102 C89.5275376,34.147868 92.1157729,32.1435638 95.335285,32.1435638 C96.5820569,32.1435638 97.5289723,32.3802927 97.9550842,32.6170215 L97.4500627,34.5108522 C96.976605,34.3056872 96.2979823,34.1163042 95.4299766,34.1163042 C93.5361459,34.1163042 92.0526452,35.2683845 92.0526452,37.6356729 C92.0526452,39.7662324 93.315199,41.1076958 95.4457585,41.1076958 C96.1875089,41.1076958 96.976605,40.9656585 97.4658446,40.7604935 Z M104.267853,42.9383989 L101.869001,42.9383989 L101.869001,38.5825882 L98.5074515,32.3013831 L101.269288,32.3013831 L102.342459,34.8580545 C102.673879,35.6313687 102.910608,36.1995179 103.163119,36.8939225 L103.194682,36.8939225 C103.431411,36.2310818 103.683922,35.6155868 103.999561,34.8580545 L105.072731,32.3013831 L107.77144,32.3013831 L104.267853,38.5036786 L104.267853,42.9383989 Z M117.635142,40.2081263 L114.589231,40.2081263 L113.831698,42.9383989 L111.353936,42.9383989 L114.589231,32.3013831 L117.745615,32.3013831 L121.059819,42.9383989 L118.455802,42.9383989 L117.635142,40.2081263 Z M114.936433,38.4089871 L117.287939,38.4089871 L116.625099,36.1521722 C116.435715,35.5208953 116.246332,34.7317991 116.088513,34.1005222 L116.056949,34.1005222 C115.89913,34.7317991 115.741311,35.5366772 115.56771,36.1521722 L114.936433,38.4089871 Z M124.673879,42.9383989 L122.46441,42.9383989 L122.46441,32.3013831 L125.273592,32.3013831 L127.483061,36.1995179 C128.114338,37.3200344 128.729833,38.6457159 129.219073,39.845142 L129.250637,39.845142 C129.108599,38.4405509 129.061253,37.004396 129.061253,35.3946399 L129.061253,32.3013831 L131.270723,32.3013831 L131.270723,42.9383989 L128.745615,42.9383989 L126.473018,38.835099 C125.841741,37.6988006 125.131555,36.3257733 124.626533,35.0790014 L124.563406,35.0790014 C124.642315,36.4993745 124.673879,37.9986571 124.673879,39.7346686 L124.673879,42.9383989 Z M133.353936,42.8910531 L133.353936,32.4592023 C134.237724,32.317165 135.389804,32.2224735 136.589231,32.2224735 C138.625099,32.2224735 139.95078,32.6012396 140.960823,33.3587719 C142.065558,34.1794319 142.759962,35.4893314 142.759962,37.3673802 C142.759962,39.4032482 142.018212,40.8078393 141.008169,41.6758451 C139.887652,42.6069785 138.167423,43.0488723 136.084209,43.0488723 C134.837437,43.0488723 133.937868,42.9699627 133.353936,42.8910531 Z M135.752789,34.1636499 L135.752789,41.1234778 C135.957954,41.1708235 136.305156,41.1708235 136.589231,41.1708235 C138.782918,41.1866055 140.219073,39.9871793 140.219073,37.4462898 C140.219073,35.2368207 138.924955,34.0689584 136.841741,34.0689584 C136.320938,34.0689584 135.957954,34.1163042 135.752789,34.1636499 Z M147.541885,32.3013831 L149.940737,32.3013831 L149.940737,42.9383989 L147.541885,42.9383989 L147.541885,32.3013831 Z M161.193248,42.9383989 L161.019647,38.8666628 C160.972301,37.5883271 160.924955,36.0416987 160.924955,34.4950703 L160.893391,34.4950703 C160.546189,35.8523156 160.104295,37.3673802 159.693965,38.6141521 L158.399847,42.7647977 L156.521799,42.7647977 L155.3855,38.6614978 C155.038298,37.398944 154.691096,35.8838795 154.422803,34.4950703 L154.391239,34.4950703 C154.343893,35.9312253 154.280766,37.5725452 154.217638,38.8982267 L154.012473,42.9383989 L151.787222,42.9383989 L152.465845,32.3013831 L155.669575,32.3013831 L156.711182,35.8523156 C157.058384,37.0833056 157.374022,38.4089871 157.610751,39.655759 L157.673879,39.655759 C157.957954,38.424769 158.320938,37.0201779 158.683922,35.8365337 L159.804439,32.3013831 L162.960823,32.3013831 L163.528972,42.9383989 L161.193248,42.9383989 Z M165.375457,42.9383989 L165.375457,32.4434204 C166.117208,32.317165 167.158814,32.2224735 168.626533,32.2224735 C170.110034,32.2224735 171.167423,32.5065481 171.877609,33.0746973 C172.572014,33.6112826 173.013908,34.4950703 173.013908,35.5366772 C173.013908,36.5782841 172.682487,37.4778537 172.035429,38.0617848 C171.214769,38.8193171 169.999561,39.1823013 168.579187,39.1823013 C168.263549,39.1823013 167.979474,39.1665194 167.758528,39.1191736 L167.758528,42.9383989 L165.375457,42.9383989 Z M167.758528,34.1320861 L167.758528,37.2726887 C167.963693,37.3200344 168.200421,37.3358164 168.563406,37.3358164 C169.841741,37.3358164 170.630837,36.6887575 170.630837,35.6155868 C170.630837,34.6371076 169.952215,34.0531765 168.737007,34.0531765 C168.263549,34.0531765 167.932129,34.0847403 167.758528,34.1320861 Z M174.560536,42.9383989 L174.560536,32.3013831 L176.959388,32.3013831 L176.959388,40.9183128 L181.188944,40.9183128 L181.188944,42.9383989 L174.560536,42.9383989 Z M188.937868,36.4835925 L188.937868,38.4405509 L185.023951,38.4405509 L185.023951,40.9656585 L189.395543,40.9656585 L189.395543,42.9383989 L182.625099,42.9383989 L182.625099,32.3013831 L189.174596,32.3013831 L189.174596,34.2741234 L185.023951,34.2741234 L185.023951,36.4835925 L188.937868,36.4835925 Z M200.20616,42.9383989 L200.032559,38.8666628 C199.985213,37.5883271 199.937868,36.0416987 199.937868,34.4950703 L199.906304,34.4950703 C199.559101,35.8523156 199.117208,37.3673802 198.706878,38.6141521 L197.41276,42.7647977 L195.534711,42.7647977 L194.398413,38.6614978 C194.05121,37.398944 193.704008,35.8838795 193.435715,34.4950703 L193.404152,34.4950703 C193.356806,35.9312253 193.293678,37.5725452 193.23055,38.8982267 L193.025385,42.9383989 L190.800134,42.9383989 L191.478757,32.3013831 L194.682487,32.3013831 L195.724094,35.8523156 C196.071297,37.0833056 196.386935,38.4089871 196.623664,39.655759 L196.686792,39.655759 C196.970866,38.424769 197.33385,37.0201779 197.696835,35.8365337 L198.817351,32.3013831 L201.973736,32.3013831 L202.541885,42.9383989 L200.20616,42.9383989 Z M210.716921,36.4835925 L210.716921,38.4405509 L206.803004,38.4405509 L206.803004,40.9656585 L211.174596,40.9656585 L211.174596,42.9383989 L204.404152,42.9383989 L204.404152,32.3013831 L210.953649,32.3013831 L210.953649,34.2741234 L206.803004,34.2741234 L206.803004,36.4835925 L210.716921,36.4835925 Z M215.025385,42.9383989 L212.815916,42.9383989 L212.815916,32.3013831 L215.625099,32.3013831 L217.834568,36.1995179 C218.465845,37.3200344 219.08134,38.6457159 219.570579,39.845142 L219.602143,39.845142 C219.460106,38.4405509 219.41276,37.004396 219.41276,35.3946399 L219.41276,32.3013831 L221.622229,32.3013831 L221.622229,42.9383989 L219.097121,42.9383989 L216.824525,38.835099 C216.193248,37.6988006 215.483061,36.3257733 214.97804,35.0790014 L214.914912,35.0790014 C214.993822,36.4993745 215.025385,37.9986571 215.025385,39.7346686 L215.025385,42.9383989 Z M225.772875,42.9383989 L225.772875,34.3214692 L222.900565,34.3214692 L222.900565,32.3013831 L231.075601,32.3013831 L231.075601,34.3214692 L228.171727,34.3214692 L228.171727,42.9383989 L225.772875,42.9383989 Z M237.877609,40.2081263 L234.831698,40.2081263 L234.074166,42.9383989 L231.596404,42.9383989 L234.831698,32.3013831 L237.988083,32.3013831 L241.302286,42.9383989 L238.698269,42.9383989 L237.877609,40.2081263 Z M235.178901,38.4089871 L237.530407,38.4089871 L236.867566,36.1521722 C236.678183,35.5208953 236.4888,34.7317991 236.330981,34.1005222 L236.299417,34.1005222 C236.141598,34.7317991 235.983779,35.5366772 235.810177,36.1521722 L235.178901,38.4089871 Z M244.774309,42.9383989 L244.774309,34.3214692 L241.902,34.3214692 L241.902,32.3013831 L250.077035,32.3013831 L250.077035,34.3214692 L247.173162,34.3214692 L247.173162,42.9383989 L244.774309,42.9383989 Z M251.371153,32.3013831 L253.770005,32.3013831 L253.770005,42.9383989 L251.371153,42.9383989 L251.371153,32.3013831 Z M260.54045,32.112 C263.807308,32.112 265.590665,34.558198 265.590665,37.5094175 C265.590665,41.0130043 263.49167,43.112 260.366849,43.112 C257.226246,43.112 255.363979,40.7289297 255.363979,37.6830187 C255.363979,34.4950703 257.415629,32.112 260.54045,32.112 Z M260.493104,34.0216126 C258.851784,34.0216126 257.904869,35.568241 257.904869,37.6356729 C257.904869,39.7346686 258.883348,41.2023874 260.493104,41.2023874 C262.118642,41.2023874 263.049776,39.655759 263.049776,37.5883271 C263.049776,35.6629326 262.150206,34.0216126 260.493104,34.0216126 Z M269.378327,42.9383989 L267.168858,42.9383989 L267.168858,32.3013831 L269.97804,32.3013831 L272.187509,36.1995179 C272.818786,37.3200344 273.434281,38.6457159 273.92352,39.845142 L273.955084,39.845142 C273.813047,38.4405509 273.765701,37.004396 273.765701,35.3946399 L273.765701,32.3013831 L275.97517,32.3013831 L275.97517,42.9383989 L273.450063,42.9383989 L271.177466,38.835099 C270.546189,37.6988006 269.836002,36.3257733 269.330981,35.0790014 L269.267853,35.0790014 C269.346763,36.4993745 269.378327,37.9986571 269.378327,39.7346686 L269.378327,42.9383989 Z" id="CONSULTANCYANDIMPLEMENTATION"></path>
                    <path d="M1.28,20.7508489 L2.26129496,16.7940144 C3.52748201,17.4587626 5.55338129,18.1235108 7.61093525,18.1235108 C9.82676259,18.1235108 10.9979856,17.2055252 10.9979856,15.8127194 C10.9979856,14.483223 9.98503597,13.7235108 7.42100719,12.8371799 C3.87568345,11.5709928 1.53323741,9.60840288 1.53323741,6.5062446 C1.53323741,2.86595683 4.60374101,0.112 9.60517986,0.112 C12.0425899,0.112 13.7835971,0.586820144 15.0497842,1.18825899 L13.9735252,5.0501295 C13.1505036,4.63861871 11.5994245,4.03717986 9.5418705,4.03717986 C7.45266187,4.03717986 6.43971223,5.01847482 6.43971223,6.09473381 C6.43971223,7.45588489 7.61093525,8.05732374 10.3965468,9.10192806 C14.1634532,10.4947338 15.9044604,12.4573237 15.9044604,15.464518 C15.9044604,19.0414964 13.1821583,22.0803453 7.32604317,22.0803453 C4.88863309,22.0803453 2.4828777,21.4155971 1.28,20.7508489 Z M31.2767626,8.81703597 L31.2767626,12.7422158 L23.4264029,12.7422158 L23.4264029,17.806964 L32.1947482,17.806964 L32.1947482,21.7637986 L18.6148921,21.7637986 L18.6148921,0.428546763 L31.7515827,0.428546763 L31.7515827,4.38538129 L23.4264029,4.38538129 L23.4264029,8.81703597 L31.2767626,8.81703597 Z M34.8735252,21.7637986 L34.8735252,0.713438849 C36.4246043,0.460201439 38.703741,0.270273381 41.2994245,0.270273381 C44.4648921,0.270273381 46.6807194,0.745093525 48.2001439,1.94797122 C49.4979856,2.96092086 50.1943885,4.48034532 50.1943885,6.44293525 C50.1943885,9.13358273 48.2634532,11.0012086 46.427482,11.6659568 L46.427482,11.7609209 C47.9152518,12.3623597 48.7382734,13.7551655 49.2764029,15.7177554 C49.9411511,18.1551655 50.5742446,20.940777 50.9857554,21.7637986 L46.0476259,21.7637986 C45.7310791,21.130705 45.1929496,19.4213525 44.5915108,16.7940144 C43.9900719,14.1033669 43.0720863,13.406964 41.0778417,13.3753094 L39.6533813,13.3753094 L39.6533813,21.7637986 L34.8735252,21.7637986 Z M39.6533813,4.03717986 L39.6533813,9.89329496 L41.5526619,9.89329496 C43.9584173,9.89329496 45.3828777,8.69041727 45.3828777,6.82279137 C45.3828777,4.89185612 44.0533813,3.87890647 41.8375539,3.87890647 C40.6663309,3.87890647 40.0015827,3.94221583 39.6533813,4.03717986 Z M63.5091367,21.7637986 L57.8746043,21.7637986 L51.0371942,0.428546763 L56.3235252,0.428546763 L58.9192086,9.4501295 C59.6472662,12.0141583 60.3120144,14.4199137 60.8184892,17.0789065 L60.9134532,17.0789065 C61.4515827,14.5148777 62.1163309,11.9825036 62.8443885,9.54509353 L65.5666906,0.428546763 L70.6947482,0.428546763 L63.5091367,21.7637986 Z M72.3922302,0.428546763 L77.203741,0.428546763 L77.203741,21.7637986 L72.3922302,21.7637986 L72.3922302,0.428546763 Z M95.7098561,17.3954532 L96.406259,21.1940144 C95.5515827,21.6055252 93.5256834,22.112 90.9616547,22.112 C83.5861151,22.112 79.7875539,17.4904173 79.7875539,11.4127194 C79.7875539,4.13214388 84.9789208,0.112 91.4364748,0.112 C93.9371942,0.112 95.8364748,0.586820144 96.6911511,1.06164029 L95.6782014,4.86020144 C94.7285611,4.44869065 93.36741,4.06883453 91.6264029,4.06883453 C87.8278417,4.06883453 84.8523021,6.3796259 84.8523021,11.1278273 C84.8523021,15.4012086 87.3846762,18.0918561 91.6580575,18.0918561 C93.1458273,18.0918561 94.7285611,17.806964 95.7098561,17.3954532 Z M111.683597,8.81703597 L111.683597,12.7422158 L103.833237,12.7422158 L103.833237,17.806964 L112.601583,17.806964 L112.601583,21.7637986 L99.0217266,21.7637986 L99.0217266,0.428546763 L112.158417,0.428546763 L112.158417,4.38538129 L103.833237,4.38538129 L103.833237,8.81703597 L111.683597,8.81703597 Z M114.457338,20.7508489 L115.438633,16.7940144 C116.70482,17.4587626 118.730719,18.1235108 120.788273,18.1235108 C123.004101,18.1235108 124.175324,17.2055252 124.175324,15.8127194 C124.175324,14.483223 123.162374,13.7235108 120.598345,12.8371799 C117.053022,11.5709928 114.710576,9.60840288 114.710576,6.5062446 C114.710576,2.86595683 117.781079,0.112 122.782518,0.112 C125.219928,0.112 126.960935,0.586820144 128.227122,1.18825899 L127.150863,5.0501295 C126.327842,4.63861871 124.776763,4.03717986 122.719209,4.03717986 C120.63,4.03717986 119.61705,5.01847482 119.61705,6.09473381 C119.61705,7.45588489 120.788273,8.05732374 123.573885,9.10192806 C127.340791,10.4947338 129.081799,12.4573237 129.081799,15.464518 C129.081799,19.0414964 126.359496,22.0803453 120.503381,22.0803453 C118.065971,22.0803453 115.660216,21.4155971 114.457338,20.7508489 Z" id="SERVICES"></path>
                </g>
            </g>
        </g>
    </g>
</svg>