<?xml version="1.0" encoding="UTF-8"?><svg version="1.1" width="641px" height="292px" viewBox="0 0 641.0 292.0" xmlns="http://www.w3.org/2000/svg" xmlns:xlink="http://www.w3.org/1999/xlink"><defs><clipPath id="i0"><path d="M641,0 L641,292 L0,292 L0,0 L641,0 Z"></path></clipPath><clipPath id="i1"><path d=""></path></clipPath><clipPath id="i2"><path d="M203,0 L203,83 L0,83 L0,0 L203,0 Z"></path></clipPath><clipPath id="i3"><path d="M4.60164251,0 L8.26530612,4.04276913 L3.85801091,4.04276913 L3.85801091,9.14285714 L0,4.88393463 L0,0 L4.60164251,0 Z"></path></clipPath><clipPath id="i4"><path d="M4.7277551,0 L13.2244898,8.43074052 L13.2244898,13.1428571 L8.07487347,13.1428571 L0,4.93742274 L0,0 L4.7277551,0 Z"></path></clipPath><linearGradient id="i5" x1="6.71589845px" y1="13.596393px" x2="6.21958335px" y2="-19.4936466px" gradientUnits="userSpaceOnUse"><stop stop-color="#589631" offset="0%"></stop><stop stop-color="#93B022" offset="100%"></stop></linearGradient><clipPath id="i6"><path d="M4.67086424,0 L6.6122449,2.25040031 L2.04436557,2.25040031 L2.04436557,7.42857143 L0,5.32304064 L0,0 L4.67086424,0 Z"></path></clipPath><clipPath id="i7"><path d="M16.5090222,0 C25.9861509,0 33.0612245,7.2989339 33.0612245,17.0470505 C33.0612245,20.17086 32.3408665,23.0544421 31.0534788,25.5351812 L26.0598415,20.0452026 C26.2752249,19.1073205 26.3918371,18.1179815 26.3918371,17.0891258 C26.3918371,10.7644634 22.0552097,5.99402985 16.6096034,5.99402985 C11.1639971,5.99402985 6.62594876,10.7641791 6.62594876,17.0891258 C6.62594876,23.4140725 11.214417,28.2919687 16.6096034,28.2919687 C17.3635746,28.2919687 17.519747,28.3161336 17.8209735,28.2473348 L22.4665843,33.216489 C20.6636208,33.8680881 18.9436563,34.2857143 16.5087636,34.2857143 C7.0750736,34.2857143 0,26.8904051 0,17.0467662 C0,7.25060412 7.0750736,0 16.5090222,0 Z"></path></clipPath><linearGradient id="i8" x1="16.7917355px" y1="35.9342715px" x2="16.3083252px" y2="0.989424307px" gradientUnits="userSpaceOnUse"><stop stop-color="#589631" offset="0%"></stop><stop stop-color="#93B022" offset="100%"></stop></linearGradient><clipPath id="i9"><path d="M5.02163715,0 L19.8367347,15.984 L19.8367347,21.1428571 L0,0 L5.02163715,0 Z"></path></clipPath><clipPath id="i10"><path d="M97,0 L97,40 L0,40 L0,0 L97,0 Z"></path></clipPath><clipPath id="i11"><path d="M97,0 L97,15 L0,15 L0,0 L97,0 Z"></path></clipPath><clipPath id="i12"><path d="M352,0 L352,98 L0,98 L0,0 L352,0 Z"></path></clipPath><clipPath id="i13"><path d="M352,0 L352,146 L0,146 L0,0 L352,0 Z"></path></clipPath><clipPath id="i14"><path d="M310,0 L310,40 L0,40 L0,0 L310,0 Z"></path></clipPath><clipPath id="i15"><path d="M310,0 L310,15 L0,15 L0,0 L310,0 Z"></path></clipPath><clipPath id="i16"><path d="M42.4294823,4.05009359e-13 L56,15.2 L56,76 L-3.97903932e-13,76 L0,2.72719925e-13 L42.4294823,4.05009359e-13 Z"></path></clipPath></defs><g clip-path="url(#i0)"><g transform="translate(532.0 240.0000000000001) rotate(90.0)"><g clip-path="url(#i1)"><polygon points="5.5,0 5.5,0 5.5,186.081633 5.5,186.081633 5.5,0" stroke="none" fill="#3AB1FD"></polygon></g><polygon points="5.5,-2.15479665 6.15368165,-0.99269593 11.7786817,9.00730407 10.4713183,9.74269593 6.25,2.238 6.25,183.843 10.4713183,176.338937 11.7786817,177.074329 6.15368165,187.074329 5.5,188.236429 4.84631835,187.074329 -0.778681653,177.074329 0.528681653,176.338937 4.75,183.843 4.75,2.238 0.528681653,9.74269593 -0.778681653,9.00730407 4.84631835,-0.99269593 5.5,-2.15479665 5.5,-2.15479665" stroke="none" fill="#3AB1FD"></polygon></g><g transform="translate(416.0 16.0)"><g clip-path="url(#i2)"><polygon points="0,0 203,0 203,83 0,83 0,0" stroke="none" fill="#E5E5E5"></polygon></g><g transform="translate(16.999999999999993 22.0)"><g transform="translate(2.7551020408163254 1.7142857142857153)"><g transform="translate(13.224489795918366 14.857142857142854)"><g clip-path="url(#i3)"><polygon points="0,0 8.26530612,0 8.26530612,9.14285714 0,9.14285714 0,0" stroke="none" fill="#EE7913"></polygon></g></g><g transform="translate(19.836734693877546 22.857142857142854)"><g clip-path="url(#i4)"><polygon points="0,0 13.2244898,0 13.2244898,13.1428571 0,13.1428571 0,0" stroke="none" fill="url(#i5)"></polygon></g></g><g transform="translate(17.08163265306122 19.428571428571423)"><g clip-path="url(#i6)"><polygon points="0,0 6.6122449,0 6.6122449,7.42857143 0,7.42857143 0,0" stroke="none" fill="#F0E649"></polygon></g></g><g clip-path="url(#i7)"><polygon points="0,0 33.0612245,0 33.0612245,34.2857143 0,34.2857143 0,0" stroke="none" fill="url(#i8)"></polygon></g><g transform="translate(13.224489795918366 14.857142857142858)"><g clip-path="url(#i9)"><polygon points="0,0 19.8367347,0 19.8367347,21.1428571 0,21.1428571 0,0" stroke="none" fill="#FFFFFF" opacity="15%"></polygon></g></g></g></g><g transform="translate(84.0 22.0)"><g transform="translate(-0.5 0.05263157894739834)"><g clip-path="url(#i10)"><polygon points="0,0 97,0 97,40 0,40 0,0" stroke="none" fill="#69B0DE"></polygon><polygon points="0,0 97,0 97,40 0,40 0,0 0,0" stroke="#4C91E2" stroke-width="2" fill="none" stroke-miterlimit="5"></polygon></g></g><g transform="translate(0.0 12.026315789473642)"><g clip-path="url(#i11)"><text transform="translate(31.349609375 11.0)" font-family="Roboto-Regular, Roboto" font-size="12.0" font-weight="normal" fill="#FFFFFF" text-anchor="center">Bridge</text></g></g></g></g><g transform="translate(453.0 232.0) scale(1.0 -1.0)"><g transform="translate(0.0 -3.2888888888888914)"><g clip-path="url(#i1)"><polygon points="2,3.27943837 2,3.27943837 2,146.355556 2,146.355556 2,3.27943837" stroke="none" fill="#3AB1FD"></polygon></g><polygon points="2.75,3.27943837 2.75,144.117 6.97131835,136.61286 8.27868165,137.348251 2.65368165,147.348251 2,148.510352 1.34631835,147.348251 -4.27868165,137.348251 -2.97131835,136.61286 1.25,144.117 1.25,3.27943837 2.75,3.27943837 2.75,3.27943837" stroke="none" fill="#3AB1FD"></polygon></g></g><g transform="translate(457.0 229.9999999999999) rotate(-90.0) scale(1.0 -1.0)"><g transform="translate(0.0 -2.511111111111113)"><g clip-path="url(#i1)"><polygon points="2,2.50389551 2,2.50389551 2,111.744444 2,111.744444 2,2.50389551" stroke="none" fill="#3AB1FD"></polygon></g><polygon points="2.75,2.50389551 2.75,109.506 6.97131835,102.001749 8.27868165,102.73714 2.65368165,112.73714 2,113.899241 1.34631835,112.73714 -4.27868165,102.73714 -2.97131835,102.001749 1.25,109.506 1.25,2.50389551 2.75,2.50389551 2.75,2.50389551" stroke="none" fill="#3AB1FD"></polygon></g></g><g transform="translate(14.0 16.0)"><g clip-path="url(#i12)"><polygon points="0,0 352,0 352,98 0,98 0,0" stroke="none" fill="#E5E5E5"></polygon></g><g transform="translate(234.0 38.0)"><g transform="translate(-0.5 0.05263157894739834)"><g clip-path="url(#i10)"><polygon points="0,0 97,0 97,40 0,40 0,0" stroke="none" fill="#69B0DE"></polygon><polygon points="0,0 97,0 97,40 0,40 0,0 0,0" stroke="#4C91E2" stroke-width="2" fill="none" stroke-miterlimit="5"></polygon></g></g><g transform="translate(0.0 12.026315789473642)"><g clip-path="url(#i11)"><text transform="translate(35.7119140625 11.0)" font-family="Roboto-Regular, Roboto" font-size="12.0" font-weight="normal" fill="#FFFFFF" text-anchor="center">WCS</text></g></g></g><g transform="translate(127.0 38.0)"><g transform="translate(-0.5 0.05263157894739834)"><g clip-path="url(#i10)"><polygon points="0,0 97,0 97,40 0,40 0,0" stroke="none" fill="#69B0DE"></polygon><polygon points="0,0 97,0 97,40 0,40 0,0 0,0" stroke="#4C91E2" stroke-width="2" fill="none" stroke-miterlimit="5"></polygon></g></g><g transform="translate(0.0 12.026315789473642)"><g clip-path="url(#i11)"><text transform="translate(36.30078125 11.0)" font-family="Roboto-Regular, Roboto" font-size="12.0" font-weight="normal" fill="#FFFFFF" text-anchor="center">WFS</text></g></g></g><g transform="translate(20.0 38.0)"><g transform="translate(-0.5 0.05263157894739834)"><g clip-path="url(#i10)"><polygon points="0,0 97,0 97,40 0,40 0,0" stroke="none" fill="#69B0DE"></polygon><polygon points="0,0 97,0 97,40 0,40 0,0 0,0" stroke="#4C91E2" stroke-width="2" fill="none" stroke-miterlimit="5"></polygon></g></g><g transform="translate(0.0 12.026315789473642)"><g clip-path="url(#i11)"><text transform="translate(34.37890625 11.0)" font-family="Roboto-Regular, Roboto" font-size="12.0" font-weight="normal" fill="#FFFFFF" text-anchor="center">WMS</text></g></g></g><g transform="translate(20.0 10.0)"><text transform="translate(0.0 13.0)" font-family="Roboto-Medium, Roboto" font-size="14.0" font-weight="400" fill="#3F3F3F" text-anchor="left" line-spacing="18.0">GeoServer Web Services</text></g></g><g transform="translate(14.0 129.0)"><g clip-path="url(#i13)"><polygon points="0,0 352,0 352,146 0,146 0,0" stroke="none" fill="#E5E5E5"></polygon></g><g transform="translate(20.0 38.0)"><g clip-path="url(#i14)"><polygon points="0,0 310,0 310,40 0,40 0,0" stroke="none" fill="#69B0DE"></polygon><polygon points="0,0 310,0 310,40 0,40 0,0 0,0" stroke="#4C91E2" stroke-width="2" fill="none" stroke-miterlimit="5"></polygon></g><g transform="translate(0.0 13.0)"><g clip-path="url(#i15)"><text transform="translate(102.5791015625 11.0)" font-family="Roboto-Regular, Roboto" font-size="12.0" font-weight="normal" fill="#FFFFFF" text-anchor="center">Web Administration</text></g></g></g><g transform="translate(20.0 88.0)"><g clip-path="url(#i14)"><polygon points="0,0 310,0 310,40 0,40 0,0" stroke="none" fill="#69B0DE"></polygon><polygon points="0,0 310,0 310,40 0,40 0,0 0,0" stroke="#4C91E2" stroke-width="2" fill="none" stroke-miterlimit="5"></polygon></g><g transform="translate(0.0 13.0)"><g clip-path="url(#i15)"><text transform="translate(140.755859375 11.0)" font-family="Roboto-Regular, Roboto" font-size="12.0" font-weight="normal" fill="#FFFFFF" text-anchor="center">REST</text></g></g></g><g transform="translate(20.0 12.0)"><text transform="translate(0.0 13.0)" font-family="Roboto-Medium, Roboto" font-size="14.0" font-weight="400" fill="#3F3F3F" text-anchor="left" line-spacing="18.0">Administration</text></g></g><g transform="translate(544.0 192.0)"><g transform=""><g clip-path="url(#i16)"><polygon points="-3.97903932e-13,2.72719925e-13 56,2.72719925e-13 56,76 -3.97903932e-13,76 -3.97903932e-13,2.72719925e-13" stroke="none" fill="#FFFEFF"></polygon><polygon points="0,2.72719925e-13 -3.97903932e-13,76 56,76 56,15.2 42.4294823,4.05009359e-13 0,2.72719925e-13 0,2.72719925e-13" stroke="#3F3F3F" stroke-width="2" fill="none" stroke-miterlimit="5"></polygon></g></g><g transform="translate(4.0 17.0)"><text transform="translate(7.203125 9.0)" font-family="Roboto-Regular, Roboto" font-size="10.0" font-weight="normal" fill="#3F3F3F" text-anchor="center" line-spacing="14.0">SCRIPT</text></g><g transform="translate(12.0 33.0)"><path d="M0,1 L32,1" stroke="#3F3F3F" stroke-width="2" fill="none" stroke-linecap="square" stroke-miterlimit="10"></path></g><g transform="translate(12.0 38.0)"><path d="M0,1 L32,1" stroke="#3F3F3F" stroke-width="2" fill="none" stroke-linecap="square" stroke-miterlimit="10"></path></g><g transform="translate(12.0 43.0)"><path d="M0,1 L32,1" stroke="#3F3F3F" stroke-width="2" fill="none" stroke-linecap="square" stroke-miterlimit="10"></path></g><g transform="translate(12.0 48.0)"><path d="M0,1 L32,1" stroke="#3F3F3F" stroke-width="2" fill="none" stroke-linecap="square" stroke-miterlimit="10"></path></g><g transform="translate(12.0 53.0)"><path d="M0,1 L32,1" stroke="#3F3F3F" stroke-width="2" fill="none" stroke-linecap="square" stroke-miterlimit="10"></path></g><g transform="translate(12.0 58.0)"><path d="M0,1 L32,1" stroke="#3F3F3F" stroke-width="2" fill="none" stroke-linecap="square" stroke-miterlimit="10"></path></g></g></g></svg>