<?xml version="1.0" encoding="UTF-8"?>
<svg width="245px" height="45px" viewBox="0 0 245 45" version="1.1" xmlns="http://www.w3.org/2000/svg" xmlns:xlink="http://www.w3.org/1999/xlink">
    <title>Product Logos</title>
    <defs>
        <circle id="path-1" cx="22.5" cy="22.5" r="22.5"></circle>
    </defs>
    <g id="Symbols" stroke="none" stroke-width="1" fill="none" fill-rule="evenodd">
        <g id="Product-Logos">
            <g id="gc_geoserver_logo" transform="translate(200.000000, 0.000000)">
                <circle id="background" fill="#00AD9F" cx="22.5" cy="22.5" r="22.5"></circle>
                <path d="M22.275,8.85 C23.099652,8.85 23.9067185,9.1728266 24.6868084,9.79689851 C24.7035106,9.81026025 24.7194605,9.82453609 24.7345849,9.83966055 L35.0208512,20.1259268 C35.0371955,20.1422712 35.0525478,20.1595784 35.0668257,20.1777558 C35.6701773,20.9458928 35.9791019,21.7407232 35.9726006,22.5522345 C35.9659207,23.3601939 35.6468084,24.1609001 35.0357926,24.9477536 C35.0209569,24.9668587 35.00494,24.9850165 34.9878358,25.0021207 L24.743853,35.2461036 C24.7284557,35.2615009 24.7122031,35.2760185 24.6951724,35.2895873 C23.9133544,35.9124874 23.1053899,36.2378554 22.2800254,36.2451309 C21.4507938,36.2521988 20.6490448,35.9377091 19.887268,35.3226116 C19.8713076,35.3097243 19.8560425,35.295999 19.8415371,35.2814936 L10.5,26.5225161 C10.4799277,26.5024438 10.4543024,26.4693541 10.4244243,26.4255551 C9.63971221,25.6854097 9.15,24.6362391 9.15,23.4727484 C9.15,21.231728 10.9666327,19.4148912 13.2076531,19.4148912 L29.0191837,19.4173402 C29.0520408,19.4162178 29.0932653,19.4173402 29.1264286,19.4173402 C30.8515306,19.4173402 32.2477551,20.8136667 32.2477551,22.5386667 C32.2477551,24.2637688 30.8515306,25.6599933 29.1264286,25.6599933 L17.8895918,25.6599933 C17.544898,25.6599933 17.2654082,25.3806055 17.2654082,25.0358096 C17.2654082,24.6910137 17.544898,24.4115239 17.8895918,24.4115239 L29.1265306,24.4115239 C30.1618367,24.4115239 30.9993878,23.574381 30.9993878,22.5389729 C30.9993878,21.5035647 30.1568367,20.6660137 29.1214286,20.6660137 L13.2109184,20.6640749 C11.6585714,20.6640749 10.4009184,21.92183 10.4009184,23.4731565 C10.4009184,24.5075103 11.3364966,25.8599593 13.2076531,27.5305037 L13.19115,27.53025 L20.6389535,34.4391867 C21.1752438,34.8662555 21.6968391,35.075567 22.214523,35.0853131 L22.2699746,35.0855945 C22.8095268,35.0809172 23.3659927,34.8598185 23.9477552,34.402478 L34.1415977,24.2086355 C34.5915386,23.6208024 34.8088042,23.0676216 34.8130758,22.5427977 C34.8173196,22.021394 34.6115826,21.4838215 34.1757261,20.9205251 L23.9380751,10.682874 C23.3606131,10.2270329 22.8092564,10.0094595 22.275,10.0094595 C21.7407436,10.0094595 21.1893869,10.2270329 20.6119249,10.682874 L16.0235549,15.271244 C15.7971564,15.4976425 15.4300918,15.4976425 15.2036933,15.271244 C14.9772948,15.0448454 14.9772948,14.6777809 15.2036933,14.4513823 L19.8154151,9.83966055 C19.8305395,9.82453609 19.8464894,9.81026025 19.8631916,9.79689851 C20.6432815,9.1728266 21.450348,8.85 22.275,8.85 Z" id="clip" fill="#FFFFFF" fill-rule="nonzero"></path>
            </g>
            <g id="gc_services_logo" transform="translate(150.000000, 0.000000)">
                <circle id="background" fill="#1F1249" cx="22.5" cy="22.5" r="22.5"></circle>
                <path d="M38.5420787,19.8833895 L36.9196067,18.2609176 C36.8814419,18.2181273 36.8419663,18.1761049 36.8009176,18.1350375 C35.63,16.9641011 33.7344944,16.9641199 32.5635768,18.1350375 C32.5592697,18.1393633 26.9940637,23.7045506 26.9940637,23.7045506 C26.7600375,23.9385955 26.7600375,24.3180524 26.9940637,24.5520412 C27.2280712,24.7860487 27.6075281,24.7860487 27.8415356,24.5520412 L33.4110487,18.9825094 C34.1138015,18.2797566 35.2505431,18.2795506 35.9532959,18.9823408 C35.9572846,18.9863109 35.9609176,18.9904869 35.9648315,18.9944944 L35.9667416,18.9926217 L36.8574719,19.8833895 L27.8707678,28.8792135 L12.4474719,28.8792135 L12.4474719,28.8774157 C10.9581648,28.8774157 9.7508427,27.6700936 9.7508427,26.1807865 C9.7508427,24.6914794 10.9581648,23.4841573 12.4474719,23.4841573 C12.4477154,23.4841573 12.4479213,23.4841573 12.4482022,23.4841573 L22.9270787,23.4859551 C23.9209551,23.4859551 24.7297753,24.2900562 24.7297753,25.28397 C24.7297753,26.2778277 23.9258427,27.0814607 22.9320225,27.0814607 L15.7410112,27.0814607 C15.4100562,27.0814607 15.1417603,27.3497566 15.1417603,27.6807116 C15.1417603,28.0116667 15.4100562,28.2799625 15.7410112,28.2799625 C15.7410112,28.2799625 22.9258989,28.2799625 22.9320225,28.2799625 C24.5879588,28.2799625 25.9282772,26.9396629 25.9282772,25.2837079 C25.9282772,23.6277903 24.5879588,22.2874532 22.9320225,22.2874532 C22.9002247,22.2874532 12.4451311,22.2851124 12.4451311,22.2851124 C10.2938951,22.2851124 8.55,24.0290262 8.55,26.1802434 C8.55,28.3314607 10.2938951,30.0753745 12.4451311,30.0753745 L27.9346442,30.0776217 C28.2235581,30.0624532 28.4851498,29.9450187 28.6844944,29.7610112 L38.5420787,19.8833895 Z" id="clip" fill="#FFFFFF" fill-rule="nonzero"></path>
            </g>
            <g id="gc_live_logo" transform="translate(100.000000, 0.000000)">
                <circle id="background" fill="#FF9900" cx="22.5" cy="22.5" r="22.5"></circle>
                <path d="M33.0613781,21.3955787 C32.762257,17.5107722 29.5288391,14.4520211 25.5840148,14.4520211 C23.3693664,14.4520211 21.3791516,15.4162494 20.0062805,16.949293 C19.2414953,16.5582937 18.3759875,16.3375781 17.4590148,16.3375781 C14.3540344,16.3375781 11.8367297,18.8642147 11.8340734,21.9819894 C11.835382,22.3324235 12.1146398,22.612143 12.4590148,22.612143 C12.8033703,22.612143 13.0826281,22.3324235 13.0839367,21.9868933 C13.0840148,19.560179 15.0427453,17.5929815 17.4590148,17.5929815 C18.2150109,17.5929815 18.9259875,17.7858429 19.5463977,18.1248802 C19.6888977,18.1811576 19.8440148,18.2121504 20.0064367,18.21217 C20.3332727,18.21217 20.6307922,18.0866885 20.8544641,17.8814104 C22.0004992,16.5500552 23.6941906,15.7074245 25.5840344,15.7074245 C28.8605773,15.7074245 31.547843,18.2397496 31.8122961,21.4619189 C31.8153234,21.4971094 31.8161242,21.5079961 31.816925,21.5189025 C31.8728625,22.0944068 32.3156164,22.5560422 32.8807141,22.6381926 C34.7537609,22.8495123 36.2090344,24.4443454 36.2090344,26.3808051 C36.2090344,28.4608319 34.5301086,30.1470152 32.4590344,30.1470152 L11.5239562,30.1470152 C9.97065546,30.1451321 8.71145624,28.8804897 8.71145624,27.3204745 C8.71145624,25.7604593 9.97065546,24.4958169 11.5239562,24.4958169 C11.5241255,24.4958169 16.834093,24.4964446 27.4538586,24.4977 C28.4904211,24.4977 29.3340148,25.3399776 29.3340148,26.3810797 C29.3340148,27.4221229 28.4955383,28.2639101 27.4590148,28.2639101 L16.2090148,28.2639101 C15.8638391,28.2639101 15.5840148,28.5449439 15.5840148,28.8916118 C15.5840148,29.2382797 15.8638391,29.5193135 16.2090148,29.5193135 L27.4143078,29.5193135 C29.1861047,29.5193135 30.5840148,28.1153802 30.5840148,26.3808051 C30.5840148,24.6462692 29.1861047,23.2422967 27.4590148,23.2422967 C27.4258508,23.2422967 27.3845227,23.241257 27.351593,23.2422967 L11.5215148,23.2398447 C9.27784296,23.2398447 7.45901484,25.0665547 7.45901484,27.3199057 C7.45901484,29.5732566 9.27784296,31.3999666 11.5215148,31.3999666 L32.3100109,31.3999666 C32.3595031,31.4014182 32.409132,31.4024186 32.4590148,31.4024186 C35.2204406,31.4024186 37.4590148,29.1541677 37.4590148,26.3808051 C37.4590148,23.8122106 35.5387414,21.6943647 33.0613781,21.3955787 Z" id="clip" fill="#FFFFFF" fill-rule="nonzero"></path>
            </g>
            <g id="Logo/Bridge/Colour" transform="translate(50.000000, 0.000000)">
                <mask id="mask-2" fill="white">
                    <use xlink:href="#path-1"></use>
                </mask>
                <use id="background" fill="#FFD200" xlink:href="#path-1"></use>
                <path d="M29.0673277,15.9011899 C29.4120351,15.9011899 29.691515,16.1806502 29.691515,16.5253771 L29.6923873,16.6165869 C29.7140953,17.982441 30.1755005,19.2440981 30.9411964,20.2647269 C31.2355592,20.6573407 31.5749805,21.0139857 31.9516385,21.3273082 L31.9414369,21.3273082 C31.943446,21.3290052 31.9455137,21.3306632 31.9475423,21.3323602 L32.1778088,21.5145059 L32.1778088,21.5145059 L32.416541,21.6860013 L32.4181209,21.6869376 C32.6361378,21.8356697 35.116541,23.2864174 35.116541,23.2864174 C36.349896,23.9824252 37.1827763,25.3049025 37.1827763,26.8220286 C37.1827763,29.0627633 35.3663134,30.8792458 33.1255592,30.8792458 L11.2695449,30.8792458 C9.02879064,30.8792458 7.2123277,29.0627633 7.2123277,26.8220286 C7.2123277,24.5812939 9.02879064,22.7648114 11.2695449,22.7648114 L14.7127373,22.7653576 L14.7136346,16.5253771 C14.7136346,16.1806502 14.9931144,15.9011899 15.3378218,15.9011899 C15.6825488,15.9011899 15.9620091,16.1806502 15.9620091,16.5253771 C15.9674317,19.9464889 18.7307282,22.7372497 22.1496749,22.7665475 L22.2542263,22.766567 C25.6737386,22.7379714 28.4377373,19.9469181 28.4430234,16.5253771 C28.4431404,16.1806502 28.7226203,15.9011899 29.0673277,15.9011899 Z M29.0689662,19.5258257 C28.893394,19.9274317 28.683433,20.3105072 28.4431404,20.6716775 L28.4431404,20.6509233 C27.889857,21.4827698 27.174987,22.1980494 26.3425163,22.7510403 C26.3425163,22.7510403 26.3561313,22.7618075 26.3479584,22.7672497 L26.5718856,22.7672692 C28.2967295,22.7672692 29.6928218,24.1633615 29.6928218,25.8882055 C29.6928218,27.6130689 28.2967295,29.0091417 26.5718856,29.0091417 L17.833264,29.0091417 C17.4885371,29.0091417 17.2090767,28.7296619 17.2090767,28.3849545 C17.2090767,28.0402081 17.4885371,27.7607672 17.833264,27.7607672 L26.5718856,27.7607672 C27.6070806,27.7607672 28.4444473,26.9236931 28.4444473,25.8884395 C28.4444473,24.8532055 27.6019311,24.0156437 26.5667555,24.0156437 L15.9607022,24.0143563 L15.9607022,26.5123927 C15.9607022,26.8571001 15.6812224,27.13658 15.336515,27.13658 C14.9918075,27.13658 14.7123277,26.8571001 14.7123277,26.5123927 L14.7126008,24.0142003 L11.2727438,24.0137906 C9.72070221,24.0137906 8.46314044,25.2713524 8.46314044,26.8226333 C8.46314044,28.3739142 9.72070221,29.6314759 11.2719831,29.6314759 L11.2719831,29.6333485 L33.1231014,29.6333485 L33.1231014,29.6314759 C34.6744018,29.6314759 35.9319441,28.3739142 35.9319441,26.8226138 C35.9319441,25.7471977 35.3275163,24.8130624 34.4399025,24.3411183 L31.7995124,22.765026 C31.3114564,22.4404681 30.8570286,22.0544083 30.4531014,21.6228218 C30.4363654,21.6049545 30.4214824,21.5854876 30.4080624,21.5648114 C30.146645,21.2794798 29.9065865,20.9742523 29.691515,20.6509038 L29.691515,20.6665475 C29.4526073,20.3068791 29.2437191,19.9255592 29.0689662,19.5258257 Z M15.9619896,20.6509428 L15.9619896,20.669922 C15.96158,20.6692588 15.9611118,20.6686151 15.9607022,20.6679714 L15.9606632,22.7655917 L18.0563914,22.7659233 C18.0488817,22.7609298 18.0413134,22.7560728 18.0338427,22.7510598 L18.0626333,22.7510598 C17.2302016,22.1980689 16.5152731,21.4827893 15.9619896,20.6509428 Z" id="clip" fill="#FFFFFF" fill-rule="nonzero" mask="url(#mask-2)"></path>
            </g>
            <g id="gc_enterprise_logo">
                <circle id="background" fill="#009BD2" cx="22.5" cy="22.5" r="22.5"></circle>
                <path d="M11.1076531,19.4320408 L26.9191837,19.4344898 C26.9520408,19.4333673 26.9932653,19.4344898 27.0264286,19.4344898 C28.7515306,19.4344898 30.1477551,20.8308163 30.1477551,22.5558163 C30.1477551,24.2809184 28.7515306,25.6771429 27.0264286,25.6771429 C27.020102,25.6771429 26.9881633,25.6772449 26.9817347,25.6771429 L15.7895918,25.6771429 C15.444898,25.6771429 15.1654082,25.3977551 15.1654082,25.0529592 C15.1654082,24.7081633 15.444898,24.4286735 15.7895918,24.4286735 L27.0265306,24.4286735 C28.0618367,24.4286735 28.8993878,23.5915306 28.8993878,22.5561224 C28.8993878,21.5207143 28.0568367,20.6831633 27.0214286,20.6831633 L11.1109184,20.6812245 C11.1106122,20.6812245 11.1104082,20.6812245 11.110102,20.6812245 C9.55857143,20.6812245 8.30091837,21.9389796 8.30091837,23.4903061 C8.30091837,25.0418367 9.55867347,26.2994898 11.110102,26.2994898 L11.110102,26.3014286 L32.0206122,26.3014286 C34.0892857,26.3014286 35.7662245,24.6243878 35.7662245,22.5558163 C35.7662245,20.4871429 34.0892857,18.8102041 32.0206122,18.8102041 L15.7895918,18.8102041 C15.444898,18.8102041 15.1654082,18.5307143 15.1654082,18.1859184 C15.1654082,17.8412245 15.444898,17.5616327 15.7895918,17.5616327 L32.0205102,17.5616327 C34.7786735,17.5616327 37.0146939,19.7976531 37.0146939,22.5558163 C37.0146939,25.3139796 34.7787755,27.55 32.0205102,27.55 C31.9707143,27.55 31.9211224,27.5489796 31.8717347,27.5476531 L11.1076531,27.5476531 C8.86663265,27.5476531 7.05,25.7308163 7.05,23.489898 C7.05,21.2488776 8.86663265,19.4320408 11.1076531,19.4320408 Z" id="clip" fill="#FFFFFF" fill-rule="nonzero"></path>
            </g>
        </g>
    </g>
</svg>