<?xml version="1.0" encoding="UTF-8"?>
<svg width="352px" height="494px" viewBox="0 0 352 494" version="1.1" xmlns="http://www.w3.org/2000/svg" xmlns:xlink="http://www.w3.org/1999/xlink">
    <title>geoserver/gs101-publish/src/basics/figure/geoserver_data_directory-dark</title>
    <g id="geoserver/gs101-publish/src/basics/figure/geoserver_data_directory-dark" stroke="none" stroke-width="1" fill="none" fill-rule="evenodd">
        <g id="Data-Directory" transform="translate(135.423694, 416.119141)">
            <polygon id="Folder" stroke="#FFC107" fill="#FFCC33" points="-1.30312179e-15 0 -1.30312179e-15 61 91 61 91 11.6742993 61.264288 11.6742993 53.3437831 0"></polygon>
            <text id="Text" font-family="Roboto-Regular, Roboto" font-size="12" font-weight="normal" fill="#2C3E50">
                <tspan x="7.73939237" y="32.8808594">Data Directory</tspan>
            </text>
        </g>
        <g id="arrow" transform="translate(172.000000, 344.000000)" fill="#3AB1FD" fill-rule="nonzero">
            <path id="Line" d="M3.5,-2.15479665 L4.15368165,-0.99269593 L9.77868165,9.00730407 L8.47131835,9.74269593 L4.25,2.238 L4.25,61.109 L8.47131835,53.6042428 L9.77868165,54.3396347 L4.15368165,64.3396347 L3.5,65.5017354 L2.84631835,64.3396347 L-2.77868165,54.3396347 L-1.47131835,53.6042428 L2.75,61.109 L2.75,2.238 L-1.47131835,9.74269593 L-2.77868165,9.00730407 L2.84631835,-0.99269593 L3.5,-2.15479665 Z"></path>
        </g>
        <g id="Administration-+-REST" transform="translate(0.000000, 119.000000)">
            <rect id="Block" stroke="#4C91E2" stroke-linecap="square" x="0" y="0" width="352" height="146"></rect>
            <g id="Diagram/Col-3-4" transform="translate(20.000000, 38.000000)">
                <rect id="Rectangle" stroke="#4C91E2" fill="#6AB0DE" x="0.5" y="0.5" width="309" height="39"></rect>
                <text id="Label" font-family="Roboto-Regular, Roboto" font-size="12" font-weight="normal" fill="#FFFFFF">
                    <tspan x="102.579102" y="24">Web Administration</tspan>
                </text>
            </g>
            <g id="Diagram/Col-3-4-Copy" transform="translate(20.000000, 88.000000)">
                <rect id="Rectangle" stroke="#4C91E2" fill="#6AB0DE" x="0.5" y="0.5" width="309" height="39"></rect>
                <text id="Label" font-family="Roboto-Regular, Roboto" font-size="12" font-weight="normal" fill="#FFFFFF">
                    <tspan x="140.755859" y="24">REST</tspan>
                </text>
            </g>
            <text id="Title" font-family="Roboto-Regular, Roboto" font-size="14" font-weight="normal" line-spacing="14" fill="#FFFFFF">
                <tspan x="20.5" y="27">Administration</tspan>
            </text>
        </g>
        <g id="Web-Services" transform="translate(0.000000, 6.000000)">
            <g id="Service/Module" stroke="#4C91E2" stroke-linecap="square">
                <rect id="Rectangle" x="0" y="0" width="352" height="98"></rect>
            </g>
            <g id="WCS" transform="translate(233.500000, 38.052632)">
                <rect id="Rectangle" stroke="#4C91E2" fill="#6AB0DE" x="0.5" y="0.5" width="96" height="39"></rect>
                <text id="Label" font-family="Roboto-Regular, Roboto" font-size="12" font-weight="normal" fill="#FFFFFF">
                    <tspan x="36.2119141" y="22.9736842">WCS</tspan>
                </text>
            </g>
            <g id="WFS" transform="translate(126.500000, 38.052632)">
                <rect id="Rectangle" stroke="#4C91E2" fill="#6AB0DE" x="0.5" y="0.5" width="96" height="39"></rect>
                <text id="Label" font-family="Roboto-Regular, Roboto" font-size="12" font-weight="normal" fill="#FFFFFF">
                    <tspan x="36.8007812" y="22.9736842">WFS</tspan>
                </text>
            </g>
            <g id="WMS" transform="translate(19.500000, 38.052632)">
                <rect id="Rectangle" stroke="#4C91E2" fill="#6AB0DE" x="0.5" y="0.5" width="96" height="39"></rect>
                <text id="Label" font-family="Roboto-Regular, Roboto" font-size="12" font-weight="normal" fill="#FFFFFF">
                    <tspan x="34.8789062" y="22.9736842">WMS</tspan>
                </text>
            </g>
            <text id="Title" font-family="Roboto-Regular, Roboto" font-size="14" font-weight="normal" line-spacing="14" fill="#FFFFFF">
                <tspan x="21" y="25">GeoServer Web Services</tspan>
            </text>
        </g>
        <rect id="Rectangle" stroke="#4C91E2" stroke-linecap="square" x="0" y="280" width="352" height="49"></rect>
        <text id="Configuration" font-family="Roboto-Regular, Roboto" font-size="14" font-weight="normal" line-spacing="14" fill="#FFFFFF">
            <tspan x="27.5" y="310">Configuration</tspan>
        </text>
    </g>
</svg>