<?xml version="1.0" encoding="UTF-8"?>
<svg width="306px" height="374px" viewBox="0 0 306 374" version="1.1" xmlns="http://www.w3.org/2000/svg" xmlns:xlink="http://www.w3.org/1999/xlink">
    <title>gs101basics/geoserver_data_directory</title>
    <g id="gs101basics/geoserver_data_directory" stroke="none" stroke-width="1" fill="none" fill-rule="evenodd">
        <g id="FOLDER-copy-2" transform="translate(137.000000, 307.000000)">
            <polygon id="Path-67-copy" stroke="#979797" fill="#FFFFFF" points="0.423693564 0.119140625 0.423693564 48.4824219 77.9531278 48.4824219 77.9531278 9.375 52.6191396 9.375 45.8710927 0.119140625"></polygon>
            <text id="Text" font-family="OpenSans-Bold, Open Sans" font-size="8" font-weight="bold" line-spacing="9" fill="#009BD2">
                <tspan x="9" y="25">Data Directory</tspan>
            </text>
        </g>
        <g id="Group" transform="translate(173.000000, 242.000000)" fill="#979797" fill-rule="nonzero">
            <g id="arrow">
                <path id="Line" d="M3.5,-1.51986443 L3.93578777,-0.74513062 L8.43578777,7.25486938 L7.56421223,7.74513062 L4,1.409 L4,56.989 L7.56421223,50.6528286 L8.43578777,51.1430898 L3.93578777,59.1430898 L3.5,59.9178236 L3.06421223,59.1430898 L-1.43578777,51.1430898 L-0.564212231,50.6528286 L3,56.989 L3,1.409 L-0.564212231,7.74513062 L-1.43578777,7.25486938 L3.06421223,-0.74513062 L3.5,-1.51986443 Z"></path>
            </g>
        </g>
        <g id="Group" transform="translate(11.000000, 10.000000)">
            <g fill="#F4F4F4" id="Rectangle" stroke="#E2E2E2">
                <rect x="0.5" y="0.5" width="274" height="225"></rect>
            </g>
            <line x1="60.5" y1="74.5" x2="262.5" y2="74.5" id="Line" stroke="#979797" stroke-linecap="square"></line>
            <g id="WMS" transform="translate(59.000000, 23.000000)">
                <g id="inner-rectangle" transform="translate(2.000000, 0.000000)" fill="#DFEDFF" stroke="#E2E2E2">
                    <rect id="Rectangle" x="0.5" y="0.5" width="59" height="37"></rect>
                </g>
                <text font-family="OpenSans-Light, Open Sans" font-size="12" font-weight="300" fill="#1F1249">
                    <tspan x="17.2011719" y="23">WMS</tspan>
                </text>
            </g>
            <g id="WMS-Copy" transform="translate(85.000000, 96.000000)">
                <g id="Rectangle" transform="translate(2.000000, 0.000000)" fill="#DFEDFF" stroke="#E2E2E2">
                    <rect x="0.5" y="0.5" width="152" height="37"></rect>
                </g>
                <text id="Web-Administration" font-family="OpenSans-Light, Open Sans" font-size="12" font-weight="300" fill="#1F1249">
                    <tspan x="23.5048828" y="23">Web Administration</tspan>
                </text>
            </g>
            <g id="WMS-Copy-2" transform="translate(85.000000, 144.000000)">
                <g id="Rectangle" transform="translate(2.000000, 0.000000)" fill="#DFEDFF" stroke="#E2E2E2">
                    <rect x="0.5" y="0.5" width="152" height="37"></rect>
                </g>
                <text id="REST" font-family="OpenSans-Light, Open Sans" font-size="12" font-weight="300" fill="#1F1249">
                    <tspan x="63.2109375" y="23">REST</tspan>
                </text>
            </g>
            <g id="WFS" transform="translate(131.000000, 23.000000)">
                <g id="inner-rectangle" fill="#DFEDFF" stroke="#E2E2E2">
                    <rect id="Rectangle" x="0.5" y="0.5" width="59" height="37"></rect>
                </g>
                <text font-family="OpenSans-Light, Open Sans" font-size="12" font-weight="300" fill="#1F1249">
                    <tspan x="18.8662109" y="24">WFS</tspan>
                </text>
            </g>
            <g id="WPS" transform="translate(201.000000, 23.000000)">
                <g id="inner-rectangle" fill="#DFEDFF" stroke="#E2E2E2">
                    <rect id="Rectangle" x="0.5" y="0.5" width="59" height="37"></rect>
                </g>
                <text id="WCS" font-family="OpenSans-Light, Open Sans" font-size="12" font-weight="300" fill="#1F1249">
                    <tspan x="18.2099609" y="24">WCS</tspan>
                </text>
            </g>
            <text id="USGS" font-family="OpenSans-Light, Open Sans" font-size="12" font-weight="300" fill="#1F1249">
                <tspan x="126.766602" y="18">web services</tspan>
            </text>
            <text id="administration" font-family="OpenSans-Light, Open Sans" font-size="12" font-weight="300" fill="#1F1249">
                <tspan x="123.582031" y="92">administration</tspan>
            </text>
            <text id="Configuration" font-family="OpenSans-Light, Open Sans" font-size="12" font-weight="300" fill="#1F1249">
                <tspan x="125.072266" y="212">Configuration</tspan>
            </text>
            <g transform="translate(5.000000, 18.000000)" id="GeoServer-Suite">
                <g id="gc_geoserver_logo" transform="translate(0.000000, 0.241625)">
                    <circle id="background" fill="#00AD9F" cx="24" cy="24" r="24"></circle>
                    <path d="M23.76,9.44 C24.6396288,9.44 25.5004998,9.78434838 26.3325956,10.4500251 C26.3504113,10.4642776 26.3674245,10.4795052 26.3835573,10.4956379 L37.3555746,21.4676552 C37.3730086,21.4850892 37.3893843,21.5035503 37.4046141,21.5229396 C38.0481891,22.3422857 38.3777087,23.1901048 38.370774,24.0557167 C38.3636488,24.9175401 38.0232623,25.7716268 37.3715121,26.6109371 C37.3556873,26.6313159 37.3386027,26.6506843 37.3203582,26.6689287 L26.3934432,37.5958438 C26.3770194,37.6122676 26.3596833,37.627753 26.3415173,37.6422265 C25.5075781,38.3066532 24.6457492,38.6537125 23.7653604,38.6614729 C22.8808468,38.6690121 22.0256478,38.3335564 21.2130859,37.6774523 C21.1960615,37.6637059 21.1797787,37.6490656 21.1643062,37.6335932 L11.2,28.2906838 C11.1785896,28.2692734 11.1512559,28.2339777 11.1193859,28.1872588 C10.2823597,27.3977703 9.76,26.2786551 9.76,25.0375983 C9.76,22.6471765 11.6977415,20.7092173 14.0881633,20.7092173 L30.9537959,20.7118296 C30.9888435,20.7106323 31.0328163,20.7118296 31.0681905,20.7118296 C32.9082993,20.7118296 34.3976054,22.2012445 34.3976054,24.0412445 C34.3976054,25.8813534 32.9082993,27.3706595 31.0681905,27.3706595 L19.0822313,27.3706595 C18.7145578,27.3706595 18.4164354,27.0726459 18.4164354,26.7048636 C18.4164354,26.3370813 18.7145578,26.0389588 19.0822313,26.0389588 L31.0682993,26.0389588 C32.1726259,26.0389588 33.0660136,25.1460064 33.0660136,24.041571 C33.0660136,22.9371357 32.1672925,22.0437479 31.0628571,22.0437479 L14.0916463,22.0416799 C12.4358095,22.0416799 11.0943129,23.3832853 11.0943129,25.0380336 C11.0943129,26.1413443 12.092263,27.5839566 14.0881633,29.3658706 L14.07056,29.3656 L22.0148837,36.7351325 C22.5869267,37.1906725 23.1432951,37.4139381 23.6954912,37.4243339 L23.7546396,37.4246341 C24.3301619,37.419645 24.9237256,37.1838064 25.5442723,36.6959765 L36.4177042,25.8225446 C36.8976412,25.1955226 37.1293911,24.6054631 37.1339475,24.0456509 C37.1384743,23.489487 36.9190215,22.9160763 36.4541079,22.3152267 L25.5339468,11.3950656 C24.9179873,10.9088351 24.3298735,10.6767568 23.76,10.6767568 C23.1901265,10.6767568 22.6020127,10.9088351 21.9860532,11.3950656 L17.0917919,16.2893269 C16.8503002,16.5308187 16.4587646,16.5308187 16.2172729,16.2893269 C15.9757811,16.0478351 15.9757811,15.6562996 16.2172729,15.4148078 L21.1364427,10.4956379 C21.1525755,10.4795052 21.1695887,10.4642776 21.1874044,10.4500251 C22.0195002,9.78434838 22.8803712,9.44 23.76,9.44 Z" id="clip" fill="#FFFFFF" fill-rule="nonzero"></path>
                </g>
            </g>
        </g>
    </g>
</svg>