<?xml version="1.0" encoding="UTF-8"?>
<svg width="580px" height="292px" viewBox="0 0 580 292" version="1.1" xmlns="http://www.w3.org/2000/svg" xmlns:xlink="http://www.w3.org/1999/xlink">
    <!-- Generator: Sketch 51.3 (57544) - http://www.bohemiancoding.com/sketch -->
    <title>geoserver_data_directory</title>
    <desc>Created with Sketch.</desc>
    <defs></defs>
    <g id="geoserver_data_directory" stroke="none" stroke-width="1" fill="none" fill-rule="evenodd">
        <rect id="Rectangle-1" stroke="#979797" stroke-width="2" fill="#EEEEEE" x="159" y="10" width="292" height="200" rx="8"></rect>
        <g id="WMS" transform="translate(232.000000, 34.000000)">
            <rect id="Service" stroke="#979797" fill="#EEEEEE" x="0.5" y="0.5" width="61" height="25"></rect>
            <text font-family="Cantarell-Regular, Cantarell" font-size="12" font-weight="normal" fill="#000000">
                <tspan x="15.1503906" y="18">WMS</tspan>
            </text>
        </g>
        <g id="WFS" transform="translate(303.000000, 34.000000)">
            <rect id="Service" stroke="#979797" fill="#EEEEEE" x="0.5" y="0.5" width="61" height="25"></rect>
            <text font-family="Cantarell-Regular, Cantarell" font-size="12" font-weight="normal" fill="#000000">
                <tspan x="17.0136719" y="18">WFS</tspan>
            </text>
        </g>
        <g id="WPS" transform="translate(373.000000, 34.000000)">
            <rect id="Service" stroke="#979797" fill="#EEEEEE" x="0.5" y="0.5" width="61" height="25"></rect>
            <text id="WCS" font-family="Cantarell-Regular, Cantarell" font-size="12" font-weight="normal" fill="#000000">
                <tspan x="16.4189453" y="18">WCS</tspan>
            </text>
        </g>
        <path d="M231.5,67.5 L433.5,67.5" id="Line" stroke="#979797" stroke-linecap="square"></path>
        <g id="Box" transform="translate(231.000000, 91.000000)">
            <rect id="Service" stroke="#979797" fill="#FFFFFF" x="0.5" y="0.5" width="134" height="25"></rect>
            <text id="Administration" font-family="Cantarell-Regular, Cantarell" font-size="12" font-weight="normal" fill="#000000">
                <tspan x="12.1699219" y="17">Web Administration</tspan>
            </text>
        </g>
        <g id="Admin" transform="translate(229.000000, 129.000000)">
            <rect id="Service" stroke="#979797" fill="#FFFFFF" x="0.5" y="0.5" width="134" height="25"></rect>
            <text id="REST" font-family="Cantarell-Regular, Cantarell" font-size="12" font-weight="normal" fill="#000000">
                <tspan x="51.4960938" y="17">REST</tspan>
            </text>
        </g>
        <text id="web-services" fill="#898989" font-family="Cantarell-Regular, Cantarell" font-size="12" font-weight="normal">
            <tspan x="294.094727" y="27">web services</tspan>
        </text>
        <text id="administration" fill="#898989" font-family="Cantarell-Regular, Cantarell" font-size="12" font-weight="normal">
            <tspan x="290.267578" y="83">administration</tspan>
        </text>
        <g id="GeoServer-Suite" transform="translate(170.000000, 17.000000)" fill="#215F7B">
            <path d="M24.0642054,47.7410909 C24.0552501,47.7410909 24.0462949,47.7403636 24.0391307,47.7403636 C24.0462949,47.7403636 24.0552501,47.7410909 24.0642054,47.7410909 L24.0685039,47.7410909 C26.4998472,47.7410909 28.9446233,46.8010909 30.7983546,44.9210909 C28.9446233,46.8010909 26.4998472,47.7410909 24.0685039,47.7410909 L24.0642054,47.7410909 L24.0642054,47.7410909 L24.0642054,47.7410909 L24.0642054,47.7410909 Z M43.8758543,23.9910909 C42.5083916,23.6501818 42.6695785,22.8174545 43.1549516,22.772 C43.6421158,22.7265455 45.4913696,23.2465455 45.4985337,23.7538182 C45.5028322,24.2610909 44.9083845,24.2474545 43.8758543,23.9910909 L43.8758543,23.9910909 Z M32.3522651,29.9338182 C32.0889887,32.5510909 33.7618173,33.4783636 30.3991379,38.232 C27.0400334,42.9856364 23.9755487,36.4301818 25.3627128,33.7429091 C26.7507725,31.0529091 24.2325636,28.3347273 21.4716681,28.0492727 C18.709877,27.7610909 19.2776382,22.6983636 22.8346531,20.0674545 C25.2471904,18.2829091 30.2818173,19.082 30.8056979,21.2729091 C31.2185337,22.9892727 34.22928,22.0647273 35.0039069,23.0301818 C35.7785337,23.9974545 32.6173397,27.3174545 32.3522651,29.9338182 L32.3522651,29.9338182 Z M27.0328621,11.0565455 C27.5191307,11.2729091 28.1889815,12.2465455 27.3355487,12.362 C26.4830113,12.4783636 26.0056979,12.1992727 25.5758472,11.6629091 C25.00272,10.9510909 26.5483845,10.842 27.0328693,11.0565455 L27.0328621,11.0565455 Z M47.183914,21.5001818 C46.6976382,21.6138182 44.4077875,23.4556364 43.0188322,21.9338182 C39.9946531,18.622 37.023317,19.6292727 38.131071,20.4647273 C38.9988322,21.1183636 38.7642054,22.8992727 37.3662949,23.2856364 C35.6836084,23.7483636 34.0394293,21.8556364 34.0394293,19.9156364 C34.0394293,16.2710909 31.8722722,15.5892727 31.1710782,14.9710909 C30.3588394,14.2565455 29.3460036,15.612 29.444511,15.972 C29.7937648,17.2465455 26.4803319,19.1265455 25.4316752,18.062 C23.3182424,15.9156364 28.4755558,16.112 25.4316752,14.7192727 C24.2907797,14.1983636 29.1364513,12.422 29.9585409,11.5856364 C30.781526,10.7510909 29.1364513,10.1238182 29.341526,8.45290909 C29.4248096,7.76927273 31.0824215,5.64654545 33.2039069,5.422 L30.7985409,2.97927273 C30.6104812,2.78836364 30.4089887,2.612 30.2083916,2.44018182 C29.8071976,4.932 26.1946531,6.76927273 24.8388394,6.16927273 C23.341526,5.50472727 26.2591379,2.87472727 23.1068991,3.28654545 C21.1466006,3.542 21.0042125,1.89836364 21.1770484,0.619272727 C19.7701827,1.06927273 18.4448096,1.85290909 17.3343618,2.97927273 L14.8143618,5.54018182 C16.3725707,5.53290909 18.6248096,5.752 18.6248096,7.08109091 C18.6248096,9.11290909 15.7071976,9.45109091 15.7071976,12.0747273 C15.7071976,14.6983636 22.3761528,13.9365455 17.7480931,16.7710909 C13.1218245,19.6065455 18.5406304,21.9747273 16.5400334,24.0065455 C14.4507797,26.1265455 15.040929,20.5365455 13.2892872,21.2983636 C11.5385409,22.0601818 9.87018269,23.752 11.5385409,24.5974545 C13.2060036,25.4447273 19.9573469,28.3210909 16.0394364,31.1974545 C12.6131678,33.7156364 10.0304812,34.9729091 9.43585433,36.9029091 L7.27316776,34.7083636 C7.54092896,33.7947273 7.82033194,32.2692727 7.01436179,31.4529091 C5.81704836,30.2383636 5.95406328,27.052 7.78719761,25.1910909 C9.62212299,23.3292727 8.62092896,20.4510909 6.7868991,20.4510909 C5.31913791,20.4510909 2.75704836,20.0938182 2.70152597,17.9256364 C1.32331701,19.6765455 0.62928,21.812 0.62928,23.942 C0.62928,26.4138182 1.55166806,28.9010909 3.40809313,30.7838182 L17.3343546,44.9210909 C17.9898842,45.5865455 18.7215188,46.1283636 19.5006233,46.5583636 C23.0066006,45.4374545 29.9710782,43.3465455 31.9716681,43.7265455 L30.7985337,44.9210909 L40.9564442,34.6074545 C39.5039069,32.9583636 37.3322651,34.6192364 35.2904812,34.0656364 C33.1206233,33.4792727 35.7230185,29.2247273 39.4824143,27.9047273 C42.8307725,26.7274545 43.9985337,29.2801818 44.7239069,30.7838182 L40.9564442,34.6074545 L44.7239069,30.7838182 C46.5776382,28.9010909 47.50272,26.4174545 47.50272,23.9465455 C47.50272,23.1238182 47.3907797,22.3029091 47.183914,21.5001818 L47.183914,21.5001818 Z M24.0624215,0.159272727 L24.0624215,0.159272727 L24.06672,0.159272727 L24.0624215,0.159272727 L24.0624215,0.159272727 Z" id="path22"></path>
            <path d="M24.0659104,0.159454545 L24.0659104,0.159454545 C21.5163582,0.159454545 19.1253134,1.16127273 17.3342687,2.97945455 L3.40620896,17.1167273 C-0.303940299,20.884 -0.303940299,27.0158182 3.40620896,30.784 L17.3342687,44.9212727 C19.1253134,46.7394545 21.5163582,47.7412727 24.0659104,47.7412727 C26.6145672,47.7412727 29.0056119,46.7394545 30.7984478,44.9212727 L44.7238209,30.784 C48.4357612,27.0158182 48.4357612,20.8858182 44.7238209,17.1185455 L30.7984478,2.97945455 C29.0056119,1.16127273 26.6145672,0.159454545 24.0659104,0.159454545 M24.0659104,1.334 C26.2106866,1.33327273 28.3527761,2.15854545 29.9799403,3.80945455 L43.9053134,17.9485455 C47.1587463,21.2494545 47.1587463,26.6503636 43.9053134,29.9521818 L29.9799403,44.0921818 C28.3527761,45.7421818 26.2106866,46.5676364 24.0659104,46.5676364 C21.9211343,46.5676364 19.7781493,45.7412727 18.1518806,44.0921818 L4.22561194,29.9521818 C0.972179104,26.6521818 0.972179104,21.2494545 4.2241791,17.9485455 L18.1518806,3.80945455 C19.7781493,2.15945455 21.9229254,1.334 24.0659104,1.334" id="path26"></path>
        </g>
        <path d="M231.5,163.5 L433.5,163.5" id="Line-copy" stroke="#979797" stroke-linecap="square"></path>
        <text id="configuration" fill="#898989" font-family="Cantarell-Regular, Cantarell" font-size="12" font-weight="normal">
            <tspan x="292.46582" y="179">configuration</tspan>
        </text>
        <path id="Line-copy-3" d="M322.5,190 L318,199 L327,199 L322.5,190 Z M322.5,229 L327,220 L318,220 L322.5,229 Z M322,198.5 L322,220.5 L322,221 L323,221 L323,220.5 L323,198.5 L323,198 L322,198 L322,198.5 Z" fill="#979797" fill-rule="nonzero"></path>
        <g id="FOLDER-copy-2" transform="translate(294.000000, 233.000000)">
            <polygon id="Path-67-copy" stroke="#000000" stroke-width="2" fill="#FFFFFF" points="0.423693564 0.119140625 0.423693564 48.4824219 77.9531278 48.4824219 77.9531278 9.375 52.6191396 9.375 45.8710927 0.119140625"></polygon>
            <text id="Text" font-family="ProximaNova-Semibold, Proxima Nova" font-size="12" font-weight="500" fill="#000000">
                <tspan x="14" y="21">Data </tspan>
                <tspan x="14" y="35">Directory</tspan>
            </text>
        </g>
    </g>
</svg>