<?xml version="1.0" encoding="UTF-8"?><svg version="1.1" width="380px" height="503px" viewBox="0 0 380.0 503.0" xmlns="http://www.w3.org/2000/svg" xmlns:xlink="http://www.w3.org/1999/xlink"><defs><clipPath id="i0"><path d="M380,0 L380,503 L0,503 L0,0 L380,0 Z"></path></clipPath><clipPath id="i1"><path d="M53.3437831,0 L61.264288,11.6742993 L91,11.6742993 L91,61 L-1.30312179e-15,61 L-1.30312179e-15,0 L53.3437831,0 Z"></path></clipPath><clipPath id="i2"><path d="M76,0 L76,30 L0,30 L0,0 L76,0 Z"></path></clipPath><clipPath id="i3"><path d=""></path></clipPath><clipPath id="i4"><path d="M352,0 L352,146 L0,146 L0,0 L352,0 Z"></path></clipPath><clipPath id="i5"><path d="M310,0 L310,40 L0,40 L0,0 L310,0 Z"></path></clipPath><clipPath id="i6"><path d="M310,0 L310,15 L0,15 L0,0 L310,0 Z"></path></clipPath><clipPath id="i7"><path d="M352,0 L352,98 L0,98 L0,0 L352,0 Z"></path></clipPath><clipPath id="i8"><path d="M97,0 L97,40 L0,40 L0,0 L97,0 Z"></path></clipPath><clipPath id="i9"><path d="M97,0 L97,15 L0,15 L0,0 L97,0 Z"></path></clipPath><clipPath id="i10"><path d="M352,0 L352,49 L0,49 L0,0 L352,0 Z"></path></clipPath></defs><g clip-path="url(#i0)"><g transform="translate(148.4236935636892 425.119140625)"><g transform=""><g clip-path="url(#i1)"><polygon points="-1.30312179e-15,0 91,0 91,61 -1.30312179e-15,61 -1.30312179e-15,0" stroke="none" fill="#FFCB32"></polygon></g><polygon points="-1.30312179e-15,0 -1.30312179e-15,61 91,61 91,11.6742993 61.264288,11.6742993 53.3437831,0 -1.30312179e-15,0 -1.30312179e-15,0" stroke="#FFC106" stroke-width="1" fill="none" stroke-miterlimit="10"></polygon></g><g transform="translate(7.576306436310915 21.880859375)"><g clip-path="url(#i2)"><text transform="translate(0.1630859375 11.0)" font-family="Roboto-Regular, Roboto" font-size="12.0" font-weight="normal" fill="#2B3E50" text-anchor="center">Data Directory</text></g></g></g><g transform="translate(185.0 353.0)"><g clip-path="url(#i3)"><polygon points="3.5,0 3.5,0 3.5,63.3469388 3.5,63.3469388 3.5,0" stroke="none" fill="#3AB1FD"></polygon></g><polygon points="3.5,-2.15479665 4.15368165,-0.99269593 9.77868165,9.00730407 8.47131835,9.74269593 4.25,2.238 4.25,61.109 8.47131835,53.6042428 9.77868165,54.3396347 4.15368165,64.3396347 3.5,65.5017354 2.84631835,64.3396347 -2.77868165,54.3396347 -1.47131835,53.6042428 2.75,61.109 2.75,2.238 -1.47131835,9.74269593 -2.77868165,9.00730407 2.84631835,-0.99269593 3.5,-2.15479665 3.5,-2.15479665" stroke="none" fill="#3AB1FD"></polygon></g><g transform="translate(13.0 128.0)"><g clip-path="url(#i4)"><polygon points="0,0 352,0 352,146 0,146 0,0" stroke="none" fill="#E5E5E5"></polygon></g><g transform="translate(20.0 38.0)"><g clip-path="url(#i5)"><polygon points="0,0 310,0 310,40 0,40 0,0" stroke="none" fill="#69B0DE"></polygon><polygon points="0,0 310,0 310,40 0,40 0,0 0,0" stroke="#4C91E2" stroke-width="2" fill="none" stroke-miterlimit="5"></polygon></g><g transform="translate(0.0 13.0)"><g clip-path="url(#i6)"><text transform="translate(102.5791015625 11.0)" font-family="Roboto-Regular, Roboto" font-size="12.0" font-weight="normal" fill="#FFFFFF" text-anchor="center">Web Administration</text></g></g></g><g transform="translate(20.0 88.0)"><g clip-path="url(#i5)"><polygon points="0,0 310,0 310,40 0,40 0,0" stroke="none" fill="#69B0DE"></polygon><polygon points="0,0 310,0 310,40 0,40 0,0 0,0" stroke="#4C91E2" stroke-width="2" fill="none" stroke-miterlimit="5"></polygon></g><g transform="translate(0.0 13.0)"><g clip-path="url(#i6)"><text transform="translate(140.755859375 11.0)" font-family="Roboto-Regular, Roboto" font-size="12.0" font-weight="normal" fill="#FFFFFF" text-anchor="center">REST</text></g></g></g><g transform="translate(20.0 12.0)"><text transform="translate(0.0 13.0)" font-family="Roboto-Medium, Roboto" font-size="14.0" font-weight="400" fill="#3F3F3F" text-anchor="left" line-spacing="18.0">Administration</text></g></g><g transform="translate(13.0 15.0)"><g clip-path="url(#i7)"><polygon points="0,0 352,0 352,98 0,98 0,0" stroke="none" fill="#E5E5E5"></polygon></g><g transform="translate(234.0 38.0)"><g transform="translate(-0.5 0.05263157894739834)"><g clip-path="url(#i8)"><polygon points="0,0 97,0 97,40 0,40 0,0" stroke="none" fill="#69B0DE"></polygon><polygon points="0,0 97,0 97,40 0,40 0,0 0,0" stroke="#4C91E2" stroke-width="2" fill="none" stroke-miterlimit="5"></polygon></g></g><g transform="translate(0.0 12.026315789473642)"><g clip-path="url(#i9)"><text transform="translate(35.7119140625 11.0)" font-family="Roboto-Regular, Roboto" font-size="12.0" font-weight="normal" fill="#FFFFFF" text-anchor="center">WCS</text></g></g></g><g transform="translate(127.0 38.0)"><g transform="translate(-0.5 0.05263157894739834)"><g clip-path="url(#i8)"><polygon points="0,0 97,0 97,40 0,40 0,0" stroke="none" fill="#69B0DE"></polygon><polygon points="0,0 97,0 97,40 0,40 0,0 0,0" stroke="#4C91E2" stroke-width="2" fill="none" stroke-miterlimit="5"></polygon></g></g><g transform="translate(0.0 12.026315789473642)"><g clip-path="url(#i9)"><text transform="translate(36.30078125 11.0)" font-family="Roboto-Regular, Roboto" font-size="12.0" font-weight="normal" fill="#FFFFFF" text-anchor="center">WFS</text></g></g></g><g transform="translate(20.0 38.0)"><g transform="translate(-0.5 0.05263157894739834)"><g clip-path="url(#i8)"><polygon points="0,0 97,0 97,40 0,40 0,0" stroke="none" fill="#69B0DE"></polygon><polygon points="0,0 97,0 97,40 0,40 0,0 0,0" stroke="#4C91E2" stroke-width="2" fill="none" stroke-miterlimit="5"></polygon></g></g><g transform="translate(0.0 12.026315789473642)"><g clip-path="url(#i9)"><text transform="translate(34.37890625 11.0)" font-family="Roboto-Regular, Roboto" font-size="12.0" font-weight="normal" fill="#FFFFFF" text-anchor="center">WMS</text></g></g></g><g transform="translate(20.0 10.0)"><text transform="translate(0.0 13.0)" font-family="Roboto-Medium, Roboto" font-size="14.0" font-weight="400" fill="#3F3F3F" text-anchor="left" line-spacing="18.0">GeoServer Web Services</text></g></g><g transform="translate(13.0 289.0)"><g clip-path="url(#i10)"><polygon points="0,0 352,0 352,49 0,49 0,0" stroke="none" fill="#E5E5E5"></polygon></g></g><g transform="translate(39.5 304.0)"><text transform="translate(0.0 13.0)" font-family="Roboto-Medium, Roboto" font-size="14.0" font-weight="400" fill="#3F3F3F" text-anchor="left" line-spacing="18.0">Configuration</text></g></g></svg>