<?xml version="1.0" encoding="UTF-8"?>
<svg width="300px" height="50px" viewBox="0 0 300 50" version="1.1" xmlns="http://www.w3.org/2000/svg" xmlns:xlink="http://www.w3.org/1999/xlink">
    <!-- Generator: Sketch 57.1 (83088) - https://sketch.com -->
    <title>Horizontal/Titles-Logo/GeoNetwork</title>
    <desc>Created with Sketch.</desc>
    <g id="Horizontal/Titles-Logo/GeoNetwork" stroke="none" stroke-width="1" fill="none" fill-rule="evenodd">
        <g id="Logo/Enterprise/Colour">
            <g id="gc_enterprise_logo">
                <circle id="Background" fill="#009BD2" cx="25" cy="25" r="25"></circle>
                <path d="M12.3418367,21.5911565 L29.9102041,21.5938776 C29.946712,21.5926304 29.992517,21.5938776 30.0293651,21.5938776 C31.9461451,21.5938776 33.4975057,23.1453515 33.4975057,25.0620181 C33.4975057,26.9787982 31.9461451,28.5301587 30.0293651,28.5301587 C30.0223356,28.5301587 29.9868481,28.5302721 29.9797052,28.5301587 L17.5439909,28.5301587 C17.1609977,28.5301587 16.8504535,28.2197279 16.8504535,27.8366213 C16.8504535,27.4535147 17.1609977,27.1429705 17.5439909,27.1429705 L30.0294785,27.1429705 C31.1798186,27.1429705 32.1104308,26.2128118 32.1104308,25.0623583 C32.1104308,23.9119048 31.174263,22.9812925 30.0238095,22.9812925 L12.3454649,22.9791383 C12.3451247,22.9791383 12.344898,22.9791383 12.3445578,22.9791383 C10.6206349,22.9791383 9.22324263,24.376644 9.22324263,26.1003401 C9.22324263,27.824263 10.6207483,29.2216553 12.3445578,29.2216553 L12.3445578,29.2238095 L35.578458,29.2238095 C37.8769841,29.2238095 39.7402494,27.3604308 39.7402494,25.0620181 C39.7402494,22.7634921 37.8769841,20.9002268 35.578458,20.9002268 L17.5439909,20.9002268 C17.1609977,20.9002268 16.8504535,20.5896825 16.8504535,20.206576 C16.8504535,19.8235828 17.1609977,19.5129252 17.5439909,19.5129252 L35.5783447,19.5129252 C38.6429705,19.5129252 41.1274376,21.9973923 41.1274376,25.0620181 C41.1274376,28.126644 38.6430839,30.6111111 35.5783447,30.6111111 C35.5230159,30.6111111 35.4679138,30.6099773 35.4130385,30.6085034 L12.3418367,30.6085034 C9.85181406,30.6085034 7.83333333,28.5897959 7.83333333,26.0998866 C7.83333333,23.6098639 9.85181406,21.5911565 12.3418367,21.5911565 Z" id="GeoCat-Enterprise-Clip" fill="#FFFFFF" fill-rule="nonzero"></path>
            </g>
        </g>
        <g id="Horizontal/Titles/Enterprise" transform="translate(57.000000, 0.000000)">
            <g transform="translate(105.000000, 26.000000) rotate(90.000000) translate(-105.000000, -26.000000) translate(83.000000, -79.000000)" id="Titles/Enterprise">
                <g transform="translate(22.000000, 105.000000) rotate(-90.000000) translate(-22.000000, -105.000000) translate(-83.000000, 83.000000)" fill-rule="nonzero">
                    <path d="M6.60422671,36.3587896 L6.60422671,38.3242075 L2.50960615,38.3242075 L2.50960615,40.8602305 L7.08303314,40.8602305 L7.08303314,42.8414986 L-1.38555833e-13,42.8414986 L-1.38555833e-13,32.1585014 L6.85188521,32.1585014 L6.85188521,34.1397695 L2.50960615,34.1397695 L2.50960615,36.3587896 L6.60422671,36.3587896 Z M11.1116114,42.8414986 L8.80013208,42.8414986 L8.80013208,32.1585014 L11.739013,32.1585014 L14.0504923,36.073487 C14.710915,37.1988473 15.3548271,38.5302594 15.8666547,39.7348703 L15.8996758,39.7348703 C15.7510807,38.3242075 15.701549,36.8818444 15.701549,35.2651297 L15.701549,32.1585014 L18.0130283,32.1585014 L18.0130283,42.8414986 L15.3713377,42.8414986 L12.993816,38.7204611 C12.3333934,37.5792507 11.5904179,36.2002882 11.0620797,34.9481268 L10.9960375,34.9481268 C11.0785903,36.3746398 11.1116114,37.8804035 11.1116114,39.6239193 L11.1116114,42.8414986 Z M22.3553074,42.8414986 L22.3553074,34.1873199 L19.3503842,34.1873199 L19.3503842,32.1585014 L27.9028578,32.1585014 L27.9028578,34.1873199 L24.8649135,34.1873199 L24.8649135,42.8414986 L22.3553074,42.8414986 Z M35.860951,36.3587896 L35.860951,38.3242075 L31.7663305,38.3242075 L31.7663305,40.8602305 L36.3397574,40.8602305 L36.3397574,42.8414986 L29.2567243,42.8414986 L29.2567243,32.1585014 L36.1086095,32.1585014 L36.1086095,34.1397695 L31.7663305,34.1397695 L31.7663305,36.3587896 L35.860951,36.3587896 Z M38.0568564,42.8414986 L38.0568564,32.3011527 C38.8658742,32.1743516 40.054635,32.0792507 41.4085014,32.0792507 C43.0595581,32.0792507 44.2152978,32.3170029 45.007805,32.9193084 C45.6847382,33.426513 46.0479707,34.1873199 46.0479707,35.1700288 C46.0479707,36.5172911 45.0408261,37.4524496 44.0832133,37.7853026 L44.0832133,37.832853 C44.8592099,38.1340058 45.2884846,38.8314121 45.5691643,39.814121 C45.9158862,41.0345821 46.2460975,42.4293948 46.4607349,42.8414986 L43.8850865,42.8414986 C43.7199808,42.5244957 43.4393012,41.6685879 43.1256004,40.3530259 C42.8118996,39.0057637 42.3330932,38.6570605 41.2929275,38.6412104 L40.549952,38.6412104 L40.549952,42.8414986 L38.0568564,42.8414986 Z M40.549952,33.9654179 L40.549952,36.8976945 L41.540586,36.8976945 C42.795389,36.8976945 43.5383646,36.295389 43.5383646,35.3602305 C43.5383646,34.3933718 42.8449207,33.8861671 41.6891811,33.8861671 C41.0782901,33.8861671 40.7315682,33.9178674 40.549952,33.9654179 Z M47.8476225,42.8414986 L47.8476225,32.3011527 C48.6236191,32.1743516 49.7133165,32.0792507 51.2487992,32.0792507 C52.8007925,32.0792507 53.9070005,32.3645533 54.649976,32.9351585 C55.3764409,33.4740634 55.8387368,34.3616715 55.8387368,35.407781 C55.8387368,36.4538905 55.4920149,37.3573487 54.8150817,37.943804 C53.9565322,38.704611 52.6852185,39.0691643 51.1992675,39.0691643 C50.8690562,39.0691643 50.571866,39.0533141 50.3407181,39.0057637 L50.3407181,42.8414986 L47.8476225,42.8414986 Z M50.3407181,33.9971182 L50.3407181,37.1512968 C50.5553554,37.1988473 50.8030139,37.2146974 51.182757,37.2146974 C52.5201129,37.2146974 53.3456412,36.5648415 53.3456412,35.4870317 C53.3456412,34.5043228 52.6356868,33.9178674 51.3643732,33.9178674 C50.8690562,33.9178674 50.5223343,33.9495677 50.3407181,33.9971182 Z M57.4402618,42.8414986 L57.4402618,32.3011527 C58.2492795,32.1743516 59.4380403,32.0792507 60.7919068,32.0792507 C62.4429635,32.0792507 63.5987032,32.3170029 64.3912104,32.9193084 C65.0681436,33.426513 65.4313761,34.1873199 65.4313761,35.1700288 C65.4313761,36.5172911 64.4242315,37.4524496 63.4666186,37.7853026 L63.4666186,37.832853 C64.2426153,38.1340058 64.67189,38.8314121 64.9525696,39.814121 C65.2992915,41.0345821 65.6295029,42.4293948 65.8441402,42.8414986 L63.2684918,42.8414986 C63.1033862,42.5244957 62.8227065,41.6685879 62.5090058,40.3530259 C62.195305,39.0057637 61.7164986,38.6570605 60.6763329,38.6412104 L59.9333573,38.6412104 L59.9333573,42.8414986 L57.4402618,42.8414986 Z M59.9333573,33.9654179 L59.9333573,36.8976945 L60.9239914,36.8976945 C62.1787944,36.8976945 62.9217699,36.295389 62.9217699,35.3602305 C62.9217699,34.3933718 62.2283261,33.8861671 61.0725865,33.8861671 C60.4616955,33.8861671 60.1149736,33.9178674 59.9333573,33.9654179 Z M67.2475384,32.1585014 L69.7571446,32.1585014 L69.7571446,42.8414986 L67.2475384,42.8414986 L67.2475384,32.1585014 Z M71.5072646,42.3342939 L72.0190922,40.3530259 C72.6795149,40.685879 73.7361912,41.018732 74.809378,41.018732 C75.9651177,41.018732 76.5760086,40.5590778 76.5760086,39.8616715 C76.5760086,39.1959654 76.0476705,38.815562 74.7103146,38.3717579 C72.8611311,37.7377522 71.6393492,36.7550432 71.6393492,35.2017291 C71.6393492,33.3789625 73.2408742,32 75.8495437,32 C77.1208573,32 78.0289385,32.2377522 78.6893612,32.5389049 L78.1280019,34.4726225 C77.6987272,34.2665706 76.8897094,33.9654179 75.8165226,33.9654179 C74.7268252,33.9654179 74.198487,34.4567723 74.198487,34.9956772 C74.198487,35.6772334 74.809378,35.9783862 76.2623079,36.5014409 C78.2270653,37.1988473 79.1351465,38.1815562 79.1351465,39.6873199 C79.1351465,41.4783862 77.7152378,43 74.6607829,43 C73.3894693,43 72.1346662,42.667147 71.5072646,42.3342939 Z M87.4729827,36.3587896 L87.4729827,38.3242075 L83.3783622,38.3242075 L83.3783622,40.8602305 L87.9517891,40.8602305 L87.9517891,42.8414986 L80.868756,42.8414986 L80.868756,32.1585014 L87.7206412,32.1585014 L87.7206412,34.1397695 L83.3783622,34.1397695 L83.3783622,36.3587896 L87.4729827,36.3587896 Z" id="ENTERPRISE" fill="#07002D"></path>
                    <path d="M19.5301291,9.46915352 L19.5301291,20.6743185 C17.9848159,21.17934 15.0585844,21.8737446 12.1323529,21.8737446 C8.08823529,21.8737446 5.16200383,20.8952654 3.1235055,19.0329986 C1.11788618,17.1707317 1.63424829e-13,14.3931133 1.63424829e-13,11.2682927 C0.0328790053,4.19799139 5.39215686,0.157819225 12.658417,0.157819225 C15.5188905,0.157819225 17.7217838,0.694404591 18.806791,1.16786227 L17.7546628,5.05021521 C16.5381396,4.51362984 15.0585844,4.1348637 12.625538,4.1348637 C8.44990435,4.1348637 5.26064084,6.3758967 5.26064084,11.0157819 C5.26064084,15.4347202 8.1539933,17.9913917 12.263869,17.9913917 C13.3817551,17.9913917 14.3023673,17.8651363 14.6969154,17.7073171 L14.6969154,13.2252511 L11.2774988,13.2252511 L11.2774988,9.46915352 L19.5301291,9.46915352 Z M36.0107305,8.74318508 L36.0107305,12.6571019 L27.8567372,12.6571019 L27.8567372,17.7073171 L36.9642216,17.7073171 L36.9642216,21.6527977 L22.8591284,21.6527977 L22.8591284,0.378766141 L36.5039156,0.378766141 L36.5039156,4.32424677 L27.8567372,4.32424677 L27.8567372,8.74318508 L36.0107305,8.74318508 Z M49.5322214,0 C56.3381755,0 60.0535031,4.89239598 60.0535031,10.794835 C60.0535031,17.8020086 55.6805954,22 49.1705523,22 C42.6276303,22 38.7479077,17.2338594 38.7479077,11.1420373 C38.7479077,4.7661406 43.0221783,0 49.5322214,0 Z M49.4335844,3.81922525 C46.0141678,3.81922525 44.0414275,6.91248207 44.0414275,11.0473458 C44.0414275,15.2453372 46.0799258,18.1807747 49.4335844,18.1807747 C52.8201219,18.1807747 54.7599832,15.0875179 54.7599832,10.9526542 C54.7599832,7.10186514 52.8858799,3.81922525 49.4335844,3.81922525 Z M67.3279829,21.6527977 L62.7249222,21.6527977 L62.7249222,0.378766141 L68.5773851,0.378766141 L73.1804459,8.17503587 C74.4956061,10.4160689 75.7778873,13.0674319 76.7971365,15.4662841 L76.8628945,15.4662841 C76.5669834,12.6571019 76.4683464,9.78479197 76.4683464,6.56527977 L76.4683464,0.378766141 L81.0714071,0.378766141 L81.0714071,21.6527977 L75.8107663,21.6527977 L71.0761895,13.446198 C69.7610293,11.1736011 68.2814741,8.42754663 67.2293459,5.93400287 L67.0978299,5.93400287 C67.2622249,8.77474892 67.3279829,11.7733142 67.3279829,15.2453372 L67.3279829,21.6527977 Z M97.9794356,8.74318508 L97.9794356,12.6571019 L89.8254423,12.6571019 L89.8254423,17.7073171 L98.9329267,17.7073171 L98.9329267,21.6527977 L84.8278335,21.6527977 L84.8278335,0.378766141 L98.4726207,0.378766141 L98.4726207,4.32424677 L89.8254423,4.32424677 L89.8254423,8.74318508 L97.9794356,8.74318508 Z M106.207407,21.6527977 L106.207407,4.41893831 L100.223428,4.41893831 L100.223428,0.378766141 L117.254752,0.378766141 L117.254752,4.41893831 L111.205015,4.41893831 L111.205015,21.6527977 L106.207407,21.6527977 Z M129.296688,21.6527977 L123.805894,21.6527977 L118.545253,0.378766141 L123.904531,0.378766141 L125.58136,9.12195122 C126.074546,11.6786227 126.534852,14.4246772 126.896521,16.5710187 L126.962279,16.5710187 C127.323948,14.266858 127.850012,11.7101865 128.408955,9.05882353 L130.283058,0.378766141 L135.609457,0.378766141 L137.384923,9.34289813 C137.878108,11.8364419 138.239777,14.1090387 138.568568,16.4763271 L138.634326,16.4763271 C138.963116,14.1090387 139.456301,11.615495 139.916607,9.05882353 L141.724952,0.378766141 L146.821198,0.378766141 L141.100251,21.6527977 L135.675215,21.6527977 L133.801112,12.4992826 C133.373685,10.3529412 133.012016,8.36441894 132.748984,5.93400287 L132.683226,5.93400287 C132.288678,8.33285509 131.927008,10.3529412 131.400944,12.4992826 L129.296688,21.6527977 Z M158.30419,0 C165.110144,0 168.825472,4.89239598 168.825472,10.794835 C168.825472,17.8020086 164.452564,22 157.942521,22 C151.399599,22 147.519877,17.2338594 147.519877,11.1420373 C147.519877,4.7661406 151.794147,0 158.30419,0 Z M158.205553,3.81922525 C154.786137,3.81922525 152.813397,6.91248207 152.813397,11.0473458 C152.813397,15.2453372 154.851895,18.1807747 158.205553,18.1807747 C161.592091,18.1807747 163.531952,15.0875179 163.531952,10.9526542 C163.531952,7.10186514 161.657849,3.81922525 158.205553,3.81922525 Z M171.496891,21.6527977 L171.496891,0.662840746 C173.107963,0.410329986 175.475251,0.220946915 178.171329,0.220946915 C181.45923,0.220946915 183.76076,0.694404591 185.338952,1.8938307 C186.686992,2.90387374 187.41033,4.41893831 187.41033,6.3758967 C187.41033,9.05882353 185.40471,10.9210904 183.497728,11.5839311 L183.497728,11.6786227 C185.043041,12.2783357 185.897896,13.6671449 186.456839,15.6241033 C187.147298,18.0545194 187.804878,20.8321377 188.232305,21.6527977 L183.10318,21.6527977 C182.77439,21.0215208 182.215447,19.3170732 181.590746,16.697274 C180.966045,14.0143472 180.012554,13.3199426 177.941176,13.2883788 L176.461621,13.2883788 L176.461621,21.6527977 L171.496891,21.6527977 Z M176.461621,3.97704448 L176.461621,9.81635581 L178.434361,9.81635581 C180.933166,9.81635581 182.412721,8.6169297 182.412721,6.75466284 C182.412721,4.82926829 181.031803,3.81922525 178.730272,3.81922525 C177.513749,3.81922525 176.82329,3.88235294 176.461621,3.97704448 Z M190.37766,21.6527977 L190.37766,0.378766141 L195.34239,0.378766141 L195.34239,9.78479197 L195.408148,9.78479197 C195.901333,8.96413199 196.427397,8.20659971 196.953461,7.44906743 L201.95107,0.378766141 L208.132323,0.378766141 L200.800305,9.43758967 L208.493992,21.6527977 L202.674408,21.6527977 L197.216493,12.4677188 L195.34239,14.7087518 L195.34239,21.6527977 L190.37766,21.6527977 Z" id="GEONETWORK" fill="#418BBF"></path>
                </g>
            </g>
        </g>
    </g>
</svg>